<svg width="360" height="540" viewBox="0 0 360 540" fill="none" xmlns="http://www.w3.org/2000/svg">
<g clip-path="url(#clip0_13_15890)">
<path d="M329.556 0.487305H30.4444C13.9066 0.487305 0.5 13.8939 0.5 30.4318V509.543C0.5 526.081 13.9066 539.487 30.4444 539.487H329.556C346.093 539.487 359.5 526.081 359.5 509.543V30.4318C359.5 13.8939 346.093 0.487305 329.556 0.487305Z" fill="white" stroke="#2A3244"/>
<path d="M27.5 29.9873L18.5 79.9873H23.5L25.8438 66.9873H34.1562L36.5 79.9873H41.5L32.5 29.9873H27.5ZM30 43.8936L33.25 61.9873H26.75L30 43.8936Z" fill="#2A3244"/>
<path d="M327.5 509.987L318.5 459.987H323.5L325.844 472.987H334.156L336.5 459.987H341.5L332.5 509.987H327.5ZM330 496.081L333.25 477.987H326.75L330 496.081Z" fill="#2A3244"/>
<path d="M185 280.987C186 284.987 190 294.987 197 294.987C206 294.987 210 286.987 210 276.987C210 269.987 207.421 265.375 205 259.987C202.422 254.251 198.621 249.13 195 243.987C190.355 237.389 180 224.987 180 224.987C180 224.987 169.645 237.389 165 243.987C161.379 249.13 157.578 254.251 155 259.987C152.579 265.375 150 269.987 150 276.987C150 286.987 154 294.987 163 294.987C170 294.987 174 284.987 175 280.987C176 279.987 176 280.987 176 281.987C175 289.987 175 291.987 174 297.987C173 303.987 170 314.987 170 314.987C175 312.987 185 312.987 190 314.987C190 314.987 187 303.987 186 297.987C185 291.987 185 289.987 184 281.987C184 280.987 184 279.987 185 280.987Z" fill="#2A3244"/>
<path d="M32.5 117.987C33 119.987 35 124.987 38.5 124.987C43 124.987 45 120.987 45 115.987C45 112.487 43.7105 110.181 42.5 107.487C41.2111 104.619 39.3103 102.059 37.5 99.4873C35.1773 96.1884 30 89.9873 30 89.9873C30 89.9873 24.8226 96.1884 22.5 99.4873C20.6897 102.059 18.7889 104.619 17.5 107.487C16.2895 110.181 15 112.487 15 115.987C15 120.987 17 124.987 21.5 124.987C25 124.987 27 119.987 27.5 117.987C28 117.487 28 117.987 28 118.487C27.5 122.487 27.5 123.487 27 126.487C26.5 129.487 25 134.987 25 134.987C27.5 133.987 32.5 133.987 35 134.987C35 134.987 33.5 129.487 33 126.487C32.5 123.487 32.5 122.487 32 118.487C32 117.987 32 117.487 32.5 117.987Z" fill="#2A3244"/>
<path d="M332.5 421.987C333 419.987 335 414.987 338.5 414.987C343 414.987 345 418.987 345 423.987C345 427.487 343.711 429.793 342.5 432.487C341.211 435.356 339.31 437.916 337.5 440.487C335.177 443.786 330 449.987 330 449.987C330 449.987 324.823 443.786 322.5 440.487C320.69 437.916 318.789 435.356 317.5 432.487C316.289 429.793 315 427.487 315 423.987C315 418.987 317 414.987 321.5 414.987C325 414.987 327 419.987 327.5 421.987C328 422.487 328 421.987 328 421.487C327.5 417.487 327.5 416.487 327 413.487C326.5 410.487 325 404.987 325 404.987C327.5 405.987 332.5 405.987 335 404.987C335 404.987 333.5 410.487 333 413.487C332.5 416.487 332.5 417.487 332 421.487C332 421.987 332 422.487 332.5 421.987Z" fill="#2A3244"/>
</g>
<defs>
<clipPath id="clip0_13_15890">
<rect width="360" height="540" fill="white"/>
</clipPath>
</defs>
</svg>
