<svg width="360" height="540" viewBox="0 0 360 540" fill="none" xmlns="http://www.w3.org/2000/svg">
<g clip-path="url(#clip0_6_2)">
<path d="M329.556 0.499969H30.4444C13.9066 0.499969 0.5 13.9066 0.5 30.4444V509.556C0.5 526.093 13.9066 539.5 30.4444 539.5H329.556C346.093 539.5 359.5 526.093 359.5 509.556V30.4444C359.5 13.9066 346.093 0.499969 329.556 0.499969Z" fill="white" stroke="black"/>
<path fill-rule="evenodd" clip-rule="evenodd" d="M55.1976 73.3007C131.558 73.3007 207.92 73.3007 284.28 73.3007C286.079 73.3007 303.386 72.4758 303.386 73.9524C303.386 82.2383 303.386 90.523 303.386 98.8088C303.386 139.938 303.386 181.067 303.386 222.197C303.386 302.01 303.386 381.824 303.386 461.638C303.386 462.206 303.771 464.795 303.071 464.795C299.647 464.795 296.226 464.795 292.805 464.795C275.035 464.795 257.266 464.795 239.498 464.795C191.281 464.795 143.066 464.795 94.849 464.795C82.1329 464.795 69.4167 464.795 56.7016 464.795C53.4653 464.795 55.1976 455.788 55.1976 453.212C55.1976 417.288 55.1976 381.365 55.1976 345.442C55.1976 258.782 55.1976 172.122 55.1976 85.4621C55.1976 81.4079 55.1976 77.3549 55.1976 73.3007Z" fill="#FF6A13" stroke="#FF6A13" stroke-width="0.0334464" stroke-miterlimit="10"/>
<path fill-rule="evenodd" clip-rule="evenodd" d="M130.54 214.033C140.441 214.033 228.041 213.336 228.041 214.722C228.041 251.873 228.041 289.024 228.041 326.177C228.041 327.294 130.54 326.311 130.54 326.592C130.54 289.649 130.54 252.706 130.54 215.763C130.54 215.186 130.54 214.609 130.54 214.033Z" fill="white" stroke="white" stroke-width="0.0334464" stroke-miterlimit="10"/>
<path fill-rule="evenodd" clip-rule="evenodd" d="M179.291 203.798C169.689 214.886 160.086 225.974 150.483 237.062C144.008 244.539 137.534 252.016 131.058 259.493C129.555 261.228 121.675 267.915 121.675 270.326C121.675 272.543 128.924 278.696 130.304 280.29C137.031 288.058 143.758 295.822 150.483 303.59C160.086 314.678 169.689 325.765 179.291 336.855C188.893 325.765 198.495 314.678 208.1 303.59C214.574 296.112 221.049 288.636 227.524 281.16C229.027 279.424 236.908 272.738 236.908 270.326C236.908 268.109 229.659 261.957 228.279 260.363C221.553 252.596 214.825 244.83 208.1 237.062C198.495 225.974 188.893 214.886 179.291 203.798Z" fill="white" stroke="white" stroke-width="0.0334464" stroke-miterlimit="10"/>
<path fill-rule="evenodd" clip-rule="evenodd" d="M134.972 219.151C153.321 219.151 171.669 219.151 190.018 219.151C199.888 219.151 209.758 219.151 219.631 219.151C224.737 219.151 223.61 219.586 223.61 224.713C223.61 247.198 223.61 269.683 223.61 292.17C223.61 300.973 223.61 309.776 223.61 318.579C223.61 323.232 220.913 321.502 216.462 321.502C197.111 321.502 177.761 321.502 158.411 321.502C151.318 321.502 144.224 321.502 137.13 321.502C133.638 321.502 134.972 319.24 134.972 315.94C134.972 283.676 134.972 251.414 134.972 219.151Z" fill="#FF6A13" stroke="#FF6A13" stroke-width="0.0334464" stroke-miterlimit="10"/>
<path fill-rule="evenodd" clip-rule="evenodd" d="M179.291 208.916C170.596 218.957 161.901 228.997 153.205 239.038C147.006 246.196 140.807 253.354 134.608 260.511C133.247 262.083 126.107 268.142 126.107 270.326C126.107 272.318 132.618 277.843 133.857 279.274C139.97 286.332 146.082 293.391 152.195 300.449C161.227 310.878 170.259 321.307 179.291 331.737C187.987 321.695 196.683 311.655 205.377 301.616C211.577 294.458 217.777 287.3 223.975 280.142C225.336 278.57 232.474 272.51 232.474 270.326C232.474 268.335 225.965 262.809 224.726 261.379C218.612 254.32 212.5 247.262 206.389 240.204C197.356 229.775 188.322 219.345 179.291 208.916Z" fill="#FF6A13" stroke="#FF6A13" stroke-width="0.0334464" stroke-miterlimit="10"/>
<path fill-rule="evenodd" clip-rule="evenodd" d="M143.835 229.386C163.083 229.386 182.33 229.386 201.577 229.386L215 229.386C215 238.068 214.745 248.061 214.745 256.742C214.745 260.561 214.793 311.268 214.702 311.268C195.066 311.268 175.637 311 156 311C153.656 311 144 311 144 311C144 302.32 143.835 292.592 143.835 283.91C143.835 265.736 143.835 247.561 143.835 229.386Z" fill="white" stroke="white" stroke-width="0.0334464" stroke-miterlimit="10"/>
<path fill-rule="evenodd" clip-rule="evenodd" d="M179.292 219.151C171.905 227.68 164.519 236.209 157.132 244.739C152.181 250.456 147.23 256.173 142.278 261.89C141.108 263.241 134.972 268.449 134.972 270.326C134.972 272.01 140.476 276.683 141.523 277.891C146.726 283.899 151.929 289.907 157.132 295.913C164.519 304.444 171.905 312.974 179.292 321.502C186.679 312.974 194.064 304.444 201.45 295.913C206.402 290.197 211.354 284.481 216.302 278.763C217.475 277.412 223.61 272.203 223.61 270.326C223.61 268.644 218.106 263.971 217.059 262.762C211.856 256.754 206.653 250.747 201.45 244.739C194.064 236.209 186.679 227.68 179.292 219.151Z" fill="white" stroke="white" stroke-width="0.0334464" stroke-miterlimit="10"/>
<path fill-rule="evenodd" clip-rule="evenodd" d="M148.268 234.503C167.174 234.503 186.082 234.503 204.988 234.503C211.815 234.503 210.314 235.108 210.314 241.954C210.314 253.45 210.314 264.946 210.314 276.44C210.314 285.847 210 307 210 307H194.5H160C155.818 307 148 307 148 307C148 283.983 148.268 257.521 148.268 234.503Z" fill="white"/>
<path fill-rule="evenodd" clip-rule="evenodd" d="M179.291 224.268C172.813 231.749 166.334 239.231 159.855 246.712C155.179 252.111 150.504 257.511 145.827 262.909C144.8 264.096 139.404 268.676 139.404 270.326C139.404 271.783 144.171 275.83 145.076 276.875C149.665 282.173 154.253 287.471 158.841 292.769C165.658 300.642 172.475 308.514 179.291 316.384C185.771 308.904 192.25 301.421 198.729 293.941C203.405 288.543 208.08 283.143 212.756 277.744C213.783 276.557 219.179 271.976 219.179 270.326C219.179 268.871 214.412 264.822 213.508 263.778C208.919 258.478 204.33 253.18 199.741 247.882C192.925 240.011 186.108 232.14 179.291 224.268Z" fill="white"/>
<path fill-rule="evenodd" clip-rule="evenodd" d="M179.292 239.62C174.859 244.739 170.428 249.856 165.996 254.973C162.949 258.491 159.902 262.01 156.854 265.529C156.194 266.292 152.699 269.263 152.699 270.326C152.699 271.391 156.194 274.362 156.854 275.124C159.902 278.642 162.949 282.16 165.996 285.679C170.428 290.797 174.859 295.913 179.292 301.031C183.725 295.913 188.154 290.797 192.587 285.679C195.634 282.16 198.681 278.642 201.726 275.124C202.388 274.362 205.883 271.391 205.883 270.326C205.883 269.263 202.388 266.292 201.726 265.529C198.681 262.01 195.634 258.491 192.587 254.973C188.154 249.856 183.725 244.739 179.292 239.62Z" fill="white"/>
<path fill-rule="evenodd" clip-rule="evenodd" d="M245.77 208.916C242.816 208.916 239.862 208.916 236.908 208.916C239.862 212.327 242.816 215.739 245.77 219.15C245.77 215.739 245.77 212.327 245.77 208.916Z" fill="white" stroke="white" stroke-width="0.0334464" stroke-miterlimit="10"/>
<path fill-rule="evenodd" clip-rule="evenodd" d="M245.77 224.268C242.816 220.857 239.862 217.444 236.908 214.033C236.908 217.349 236.908 220.665 236.908 223.982C236.908 224.583 244.628 224.268 245.77 224.268Z" fill="white" stroke="white" stroke-width="0.0334464" stroke-miterlimit="10"/>
<path fill-rule="evenodd" clip-rule="evenodd" d="M112.813 208.916C115.767 208.916 118.721 208.916 121.675 208.916C118.721 212.327 115.767 215.739 112.813 219.15C112.813 215.739 112.813 212.327 112.813 208.916Z" fill="white" stroke="white" stroke-width="0.0334464" stroke-miterlimit="10"/>
<path fill-rule="evenodd" clip-rule="evenodd" d="M112.813 224.268C115.767 220.857 118.721 217.444 121.675 214.033C121.675 217.349 121.675 220.665 121.675 223.982C121.675 224.583 113.956 224.268 112.813 224.268Z" fill="white" stroke="white" stroke-width="0.0334464" stroke-miterlimit="10"/>
<path fill-rule="evenodd" clip-rule="evenodd" d="M121.675 316.384C118.721 316.384 115.767 316.384 112.813 316.384C115.767 319.796 118.721 323.208 121.675 326.618C121.675 323.208 121.675 319.796 121.675 316.384Z" fill="white" stroke="white" stroke-width="0.0334464" stroke-miterlimit="10"/>
<path fill-rule="evenodd" clip-rule="evenodd" d="M121.675 331.737C118.721 328.325 115.767 324.912 112.813 321.502C112.813 324.817 112.813 328.134 112.813 331.451C112.813 332.053 120.533 331.737 121.675 331.737Z" fill="white" stroke="white" stroke-width="0.0334464" stroke-miterlimit="10"/>
<path fill-rule="evenodd" clip-rule="evenodd" d="M236.908 316.384C239.862 316.384 242.816 316.384 245.77 316.384C242.816 319.796 239.862 323.208 236.908 326.618C236.908 323.208 236.908 319.796 236.908 316.384Z" fill="white" stroke="white" stroke-width="0.0334464" stroke-miterlimit="10"/>
<path fill-rule="evenodd" clip-rule="evenodd" d="M236.908 331.737C239.862 328.325 242.816 324.912 245.77 321.502C245.77 324.817 245.77 328.134 245.77 331.451C245.77 332.053 238.05 331.737 236.908 331.737Z" fill="white" stroke="white" stroke-width="0.0334464" stroke-miterlimit="10"/>
<path fill-rule="evenodd" clip-rule="evenodd" d="M121.675 280.562C118.721 280.562 115.767 280.562 112.813 280.562C115.767 283.975 118.721 287.385 121.675 290.797C121.675 287.385 121.675 283.975 121.675 280.562Z" fill="white" stroke="white" stroke-width="0.0334464" stroke-miterlimit="10"/>
<path fill-rule="evenodd" clip-rule="evenodd" d="M121.675 295.913C118.721 292.503 115.767 289.091 112.813 285.679C112.813 288.995 112.813 292.31 112.813 295.627C112.813 296.229 120.533 295.913 121.675 295.913Z" fill="white" stroke="white" stroke-width="0.0334464" stroke-miterlimit="10"/>
<path fill-rule="evenodd" clip-rule="evenodd" d="M112.813 244.739C115.767 244.739 118.721 244.739 121.675 244.739C118.721 248.15 115.767 251.562 112.813 254.973C112.813 251.562 112.813 248.15 112.813 244.739Z" fill="white" stroke="white" stroke-width="0.0334464" stroke-miterlimit="10"/>
<path fill-rule="evenodd" clip-rule="evenodd" d="M112.813 260.091C115.767 256.679 118.721 253.268 121.675 249.856C121.675 253.172 121.675 256.489 121.675 259.805C121.675 260.405 113.956 260.091 112.813 260.091Z" fill="white" stroke="white" stroke-width="0.0334464" stroke-miterlimit="10"/>
<path fill-rule="evenodd" clip-rule="evenodd" d="M245.77 244.739C242.816 244.739 239.862 244.739 236.908 244.739C239.862 248.15 242.816 251.562 245.77 254.973C245.77 251.562 245.77 248.15 245.77 244.739Z" fill="white" stroke="white" stroke-width="0.0334464" stroke-miterlimit="10"/>
<path fill-rule="evenodd" clip-rule="evenodd" d="M245.77 260.091C242.816 256.679 239.862 253.268 236.908 249.856C236.908 253.172 236.908 256.489 236.908 259.805C236.908 260.405 244.628 260.091 245.77 260.091Z" fill="white" stroke="white" stroke-width="0.0334464" stroke-miterlimit="10"/>
<path fill-rule="evenodd" clip-rule="evenodd" d="M236.908 280.562C239.862 280.562 242.816 280.562 245.77 280.562C242.816 283.975 239.862 287.385 236.908 290.797C236.908 287.385 236.908 283.975 236.908 280.562Z" fill="white" stroke="white" stroke-width="0.0334464" stroke-miterlimit="10"/>
<path fill-rule="evenodd" clip-rule="evenodd" d="M236.908 295.913C239.862 292.503 242.816 289.091 245.77 285.679C245.77 288.995 245.77 292.31 245.77 295.627C245.77 296.229 238.05 295.913 236.908 295.913Z" fill="white" stroke="white" stroke-width="0.0334464" stroke-miterlimit="10"/>
<path fill-rule="evenodd" clip-rule="evenodd" d="M148.378 56.0286C146.567 51.5404 144.651 46.9688 143.408 42.2792C142.288 38.0529 141.396 27.7351 147.012 25.7064C152.4 23.7622 154.359 33.0883 154.288 36.7528C154.182 42.2575 151.569 47.8814 149.601 52.9412C149.201 53.9718 148.792 55.0056 148.378 56.0286Z" fill="#FF6A13"/>
<path fill-rule="evenodd" clip-rule="evenodd" d="M148.35 56.1304C143.896 54.2533 138.937 52.414 134.995 49.5637C131.496 47.0327 125.923 39.5317 129.174 34.9438C132.456 30.3127 139.304 35.6204 141.516 38.749C144.69 43.234 146.181 49.3688 147.847 54.5445C148.017 55.0717 148.183 55.6054 148.35 56.1304Z" fill="#FF6A13"/>
<path fill-rule="evenodd" clip-rule="evenodd" d="M148.364 56.1304C152.818 54.2522 157.776 52.414 161.719 49.5637C165.218 47.0338 170.79 39.5306 167.54 34.9438C164.258 30.3116 157.409 35.6204 155.197 38.749C151.962 43.3228 150.447 49.6113 148.754 54.8941C148.624 55.3044 148.493 55.7223 148.364 56.1304Z" fill="#FF6A13"/>
<path fill-rule="evenodd" clip-rule="evenodd" d="M136.952 56.7453C133.348 55.6746 128.884 56.0286 126.581 59.3715C125.354 61.1534 125.075 68.0579 128.982 66.7156C129.663 66.4817 130.22 63.4549 131.05 62.7578C132.633 61.4284 135.598 61.4695 137.521 61.3158C140.107 61.1112 142.793 61.3872 145.335 61.0354C145.338 61.0203 145.343 61.0062 145.35 60.9921C142.941 59.1236 139.87 57.6492 136.952 56.7453Z" fill="#FF6A13"/>
<path fill-rule="evenodd" clip-rule="evenodd" d="M159.585 56.7453C163.189 55.6736 167.652 56.0286 169.954 59.3716C171.182 61.1534 171.462 68.059 167.554 66.7156C166.873 66.4817 166.317 63.456 165.486 62.7578C163.904 61.4284 160.938 61.4695 159.016 61.3158C156.428 61.1112 153.743 61.3873 151.2 61.0354C151.197 61.0203 151.193 61.0062 151.185 60.9921C153.595 59.1237 156.665 57.6492 159.585 56.7453Z" fill="#FF6A13"/>
<path fill-rule="evenodd" clip-rule="evenodd" d="M145.314 66.6896C145.84 71.1984 153.649 69.0063 149.915 62.8011C147.291 58.4406 145.788 62.5207 145.314 66.6896Z" fill="#FF6A13"/>
<path fill-rule="evenodd" clip-rule="evenodd" d="M210.424 56.0286C208.612 51.5415 206.696 46.9677 205.455 42.2792C204.334 38.0529 203.443 27.7362 209.058 25.7064C214.447 23.76 216.406 33.0894 216.335 36.7528C216.229 42.2586 213.616 47.8814 211.648 52.9412C211.246 53.9718 210.84 55.0046 210.424 56.0286Z" fill="#FF6A13"/>
<path fill-rule="evenodd" clip-rule="evenodd" d="M210.396 56.1304C205.943 54.2532 200.982 52.414 197.042 49.5636C193.543 47.0326 187.97 39.5306 191.22 34.9438C194.503 30.3137 201.35 35.6193 203.565 38.749C206.737 43.234 208.227 49.3699 209.892 54.5445C210.063 55.0717 210.23 55.6054 210.396 56.1304Z" fill="#FF6A13"/>
<path fill-rule="evenodd" clip-rule="evenodd" d="M210.411 56.1304C214.864 54.2522 219.823 52.414 223.765 49.5637C227.267 47.0327 232.838 39.5317 229.585 34.9438C226.304 30.3127 219.455 35.6204 217.243 38.749C214.006 43.3228 212.496 49.6113 210.803 54.8941C210.671 55.3055 210.541 55.7212 210.411 56.1304Z" fill="#FF6A13"/>
<path fill-rule="evenodd" clip-rule="evenodd" d="M198.997 56.7453C195.394 55.6736 190.931 56.0297 188.63 59.3715C187.401 61.1545 187.12 68.059 191.03 66.7156C191.709 66.4817 192.267 63.4549 193.098 62.7578C194.678 61.4284 197.645 61.4695 199.568 61.3158C202.155 61.1112 204.84 61.3873 207.382 61.0354C207.384 61.0203 207.39 61.0062 207.397 60.9921C204.985 59.1236 201.919 57.6492 198.997 56.7453Z" fill="#FF6A13"/>
<path fill-rule="evenodd" clip-rule="evenodd" d="M221.631 56.7453C225.234 55.6736 229.7 56.0297 232.003 59.3715C233.229 61.1534 233.508 68.0579 229.602 66.7156C228.919 66.4817 228.363 63.4549 227.533 62.7578C225.952 61.4284 222.985 61.4695 221.062 61.3158C218.476 61.1101 215.79 61.3873 213.247 61.0354C213.244 61.0203 213.24 61.0062 213.231 60.9921C215.643 59.1247 218.711 57.6492 221.631 56.7453Z" fill="#FF6A13"/>
<path fill-rule="evenodd" clip-rule="evenodd" d="M207.36 66.6896C207.888 71.1984 215.697 69.0063 211.962 62.8011C209.339 58.4395 207.834 62.5218 207.36 66.6896Z" fill="#FF6A13"/>
<path fill-rule="evenodd" clip-rule="evenodd" d="M272.472 56.0286C270.662 51.5393 268.744 46.9688 267.5 42.2792C266.382 38.0529 265.489 27.7351 271.107 25.7064C276.494 23.7611 278.451 33.0894 278.382 36.7528C278.274 42.2586 275.662 47.8803 273.694 52.9412C273.296 53.9718 272.885 55.0056 272.472 56.0286Z" fill="#FF6A13"/>
<path fill-rule="evenodd" clip-rule="evenodd" d="M272.444 56.1304C267.989 54.2522 263.032 52.414 259.087 49.5637C255.588 47.0327 250.018 39.5306 253.268 34.9438C256.549 30.3127 263.398 35.6204 265.61 38.749C268.845 43.3228 270.359 49.6102 272.05 54.8941C272.184 55.3055 272.314 55.7212 272.444 56.1304Z" fill="#FF6A13"/>
<path fill-rule="evenodd" clip-rule="evenodd" d="M272.457 56.1304C276.912 54.2533 281.871 52.414 285.813 49.5637C289.312 47.0327 294.883 39.5306 291.635 34.9438C288.352 30.3127 281.503 35.6204 279.291 38.749C276.055 43.3228 274.542 49.6113 272.85 54.8941C272.718 55.3044 272.587 55.7223 272.457 56.1304Z" fill="#FF6A13"/>
<path fill-rule="evenodd" clip-rule="evenodd" d="M261.047 56.7453C257.442 55.6736 252.978 56.0297 250.675 59.3715C249.446 61.1545 249.168 68.0579 253.075 66.7156C253.757 66.4817 254.312 63.4549 255.143 62.7578C256.726 61.4284 259.693 61.4695 261.613 61.3158C264.202 61.1112 266.886 61.3873 269.429 61.0354C269.433 61.0203 269.438 61.0062 269.444 60.9921C267.033 59.1236 263.966 57.6492 261.047 56.7453Z" fill="#FF6A13"/>
<path fill-rule="evenodd" clip-rule="evenodd" d="M283.676 56.7453C287.284 55.6746 291.747 56.0286 294.048 59.3715C295.277 61.1534 295.558 68.0568 291.648 66.7156C290.969 66.4817 290.411 63.456 289.58 62.7577C287.997 61.4284 285.032 61.4695 283.11 61.3158C280.523 61.1112 277.837 61.3872 275.294 61.0354C275.29 61.0203 275.285 61.0062 275.281 60.9921C277.69 59.1236 280.759 57.6492 283.676 56.7453Z" fill="#FF6A13"/>
<path fill-rule="evenodd" clip-rule="evenodd" d="M269.407 66.6896C269.935 71.2006 277.742 69.0041 274.009 62.8011C271.384 58.4395 269.883 62.5218 269.407 66.6896Z" fill="#FF6A13"/>
<path fill-rule="evenodd" clip-rule="evenodd" d="M86.3316 56.0286C84.5194 51.5415 82.6033 46.9677 81.3609 42.2792C80.2406 38.0529 79.3496 27.7351 84.9649 25.7064C90.3541 23.76 92.3113 33.0894 92.241 36.7528C92.135 42.2586 89.5215 47.8803 87.5535 52.9412C87.1534 53.9718 86.7447 55.0046 86.3316 56.0286Z" fill="#FF6A13"/>
<path fill-rule="evenodd" clip-rule="evenodd" d="M86.3024 56.1304C81.8474 54.2522 76.8907 52.414 72.9472 49.5637C69.4481 47.0327 63.8761 39.5317 67.1265 34.9438C70.4083 30.3127 77.2573 35.6204 79.4697 38.749C82.6422 43.234 84.1344 49.3699 85.7996 54.5445C85.9694 55.0717 86.1359 55.6054 86.3024 56.1304Z" fill="#FF6A13"/>
<path fill-rule="evenodd" clip-rule="evenodd" d="M86.3165 56.1304C90.7704 54.2533 95.7293 52.414 99.6717 49.5637C103.171 47.0327 108.744 39.5317 105.492 34.9438C102.21 30.3127 95.3627 35.6204 93.1493 38.749C89.9767 43.234 88.4856 49.3699 86.8193 54.5445C86.6496 55.0717 86.483 55.6043 86.3165 56.1304Z" fill="#FF6A13"/>
<path fill-rule="evenodd" clip-rule="evenodd" d="M74.9043 56.7453C71.3003 55.6736 66.8367 56.0297 64.5346 59.3715C63.3073 61.1534 63.0273 68.059 66.9351 66.7156C67.6153 66.4817 68.1721 63.4549 69.0026 62.7578C70.5845 61.4284 73.5505 61.4695 75.4731 61.3158C78.0607 61.1112 80.7466 61.3873 83.2888 61.0354C83.2909 61.0203 83.2964 61.0062 83.3039 60.9921C80.8937 59.1247 77.8239 57.6481 74.9043 56.7453Z" fill="#FF6A13"/>
<path fill-rule="evenodd" clip-rule="evenodd" d="M97.5361 56.7453C101.141 55.6746 105.605 56.0286 107.908 59.3715C109.135 61.1534 109.415 68.0579 105.507 66.7156C104.826 66.4817 104.269 63.4549 103.439 62.7578C101.857 61.4284 98.891 61.4695 96.9684 61.3158C94.3819 61.1112 91.696 61.3872 89.1538 61.0354C89.1506 61.0203 89.1452 61.0062 89.1387 60.9921C91.5489 59.1236 94.6176 57.6503 97.5361 56.7453Z" fill="#FF6A13"/>
<path fill-rule="evenodd" clip-rule="evenodd" d="M83.2661 66.6896C83.7938 71.1984 91.6019 69.0062 87.8681 62.8011C85.2449 58.4405 83.7408 62.5218 83.2661 66.6896Z" fill="#FF6A13"/>
<path fill-rule="evenodd" clip-rule="evenodd" d="M147.824 482.066C146.013 486.554 144.096 491.127 142.854 495.814C141.734 500.039 140.841 510.362 146.459 512.388C151.848 514.333 153.804 505.005 153.734 501.342C153.628 495.834 151.013 490.213 149.047 485.153C148.646 484.123 148.238 483.09 147.824 482.066Z" fill="#FF6A13"/>
<path fill-rule="evenodd" clip-rule="evenodd" d="M147.795 481.964C143.34 483.839 138.384 485.68 134.441 488.531C130.941 491.062 125.369 498.562 128.619 503.15C131.902 507.781 138.75 502.474 140.962 499.346C144.136 494.86 145.626 488.724 147.292 483.549C147.462 483.023 147.629 482.488 147.795 481.964Z" fill="#FF6A13"/>
<path fill-rule="evenodd" clip-rule="evenodd" d="M147.81 481.964C152.265 483.839 157.222 485.68 161.164 488.531C164.665 491.062 170.235 498.562 166.985 503.15C163.703 507.781 156.855 502.474 154.642 499.346C151.407 494.771 149.893 488.483 148.202 483.201C148.07 482.789 147.94 482.373 147.81 481.964Z" fill="#FF6A13"/>
<path fill-rule="evenodd" clip-rule="evenodd" d="M136.397 481.349C132.793 482.419 128.33 482.064 126.027 478.721C124.8 476.941 124.52 470.035 128.428 471.377C129.108 471.611 129.666 474.638 130.495 475.335C132.078 476.664 135.043 476.625 136.967 476.777C139.553 476.982 142.242 476.707 144.782 477.058C144.784 477.075 144.789 477.088 144.797 477.101C142.388 478.97 139.317 480.444 136.397 481.349Z" fill="#FF6A13"/>
<path fill-rule="evenodd" clip-rule="evenodd" d="M159.03 481.349C162.634 482.419 167.099 482.064 169.401 478.721C170.628 476.941 170.908 470.037 167 471.377C166.32 471.611 165.762 474.638 164.932 475.335C163.349 476.664 160.385 476.625 158.461 476.777C155.875 476.982 153.187 476.707 150.647 477.058C150.643 477.073 150.638 477.088 150.631 477.101C153.04 478.97 156.112 480.444 159.03 481.349Z" fill="#FF6A13"/>
<path fill-rule="evenodd" clip-rule="evenodd" d="M144.759 471.405C145.286 466.895 153.095 469.086 149.361 475.291C146.738 479.654 145.237 475.575 144.759 471.405Z" fill="#FF6A13"/>
<path fill-rule="evenodd" clip-rule="evenodd" d="M209.871 482.066C208.059 486.554 206.142 491.127 204.901 495.814C203.781 500.039 202.89 510.36 208.504 512.388C213.893 514.333 215.853 505.005 215.781 501.342C215.675 495.838 213.063 490.209 211.095 485.153C210.693 484.123 210.286 483.09 209.871 482.066Z" fill="#FF6A13"/>
<path fill-rule="evenodd" clip-rule="evenodd" d="M209.843 481.964C205.388 483.839 200.429 485.68 196.489 488.531C192.989 491.062 187.416 498.562 190.667 503.15C193.95 507.781 200.797 502.474 203.011 499.346C206.246 494.771 207.758 488.483 209.451 483.201C209.581 482.791 209.713 482.371 209.843 481.964Z" fill="#FF6A13"/>
<path fill-rule="evenodd" clip-rule="evenodd" d="M209.858 481.964C214.313 483.839 219.269 485.68 223.212 488.531C226.713 491.062 232.284 498.562 229.031 503.15C225.749 507.781 218.902 502.474 216.689 499.346C213.454 494.771 211.94 488.483 210.247 483.201C210.117 482.791 209.988 482.371 209.858 481.964Z" fill="#FF6A13"/>
<path fill-rule="evenodd" clip-rule="evenodd" d="M198.444 481.349C194.841 482.419 190.377 482.064 188.074 478.721C186.848 476.941 186.566 470.035 190.474 471.377C191.156 471.611 191.713 474.638 192.544 475.335C194.127 476.664 197.09 476.625 199.014 476.777C201.599 476.982 204.289 476.707 206.828 477.058C206.83 477.073 206.837 477.088 206.843 477.101C204.434 478.97 201.363 480.444 198.444 481.349Z" fill="#FF6A13"/>
<path fill-rule="evenodd" clip-rule="evenodd" d="M221.077 481.349C224.68 482.419 229.144 482.064 231.449 478.721C232.673 476.941 232.954 470.037 229.049 471.377C228.365 471.611 227.81 474.638 226.979 475.335C225.396 476.664 222.431 476.625 220.506 476.777C217.922 476.982 215.234 476.707 212.693 477.058C212.691 477.075 212.687 477.088 212.678 477.101C215.087 478.97 218.158 480.444 221.077 481.349Z" fill="#FF6A13"/>
<path fill-rule="evenodd" clip-rule="evenodd" d="M206.804 471.405C207.334 466.895 215.141 469.086 211.408 475.291C208.785 479.654 207.284 475.575 206.804 471.405Z" fill="#FF6A13"/>
<path fill-rule="evenodd" clip-rule="evenodd" d="M271.918 482.066C270.106 486.554 268.19 491.127 266.946 495.814C265.828 500.039 264.935 510.362 270.554 512.388C275.943 514.333 277.898 505.005 277.829 501.342C277.723 495.838 275.112 490.209 273.14 485.153C272.74 484.123 272.331 483.09 271.918 482.066Z" fill="#FF6A13"/>
<path fill-rule="evenodd" clip-rule="evenodd" d="M271.89 481.964C267.435 483.839 262.476 485.68 258.534 488.531C255.035 491.062 249.464 498.562 252.712 503.15C255.995 507.781 262.844 502.474 265.056 499.346C268.231 494.86 269.721 488.724 271.388 483.549C271.557 483.023 271.721 482.488 271.89 481.964Z" fill="#FF6A13"/>
<path fill-rule="evenodd" clip-rule="evenodd" d="M271.903 481.964C276.358 483.839 281.317 485.68 285.259 488.531C288.758 491.062 294.329 498.562 291.079 503.15C287.798 507.781 280.949 502.474 278.737 499.346C275.562 494.86 274.074 488.724 272.405 483.549C272.236 483.023 272.07 482.488 271.903 481.964Z" fill="#FF6A13"/>
<path fill-rule="evenodd" clip-rule="evenodd" d="M260.491 481.349C256.886 482.419 252.422 482.064 250.121 478.721C248.893 476.941 248.612 470.037 252.522 471.377C253.201 471.611 253.759 474.638 254.589 475.335C256.172 476.664 259.137 476.625 261.06 476.777C263.646 476.982 266.337 476.707 268.875 477.058C268.878 477.075 268.884 477.088 268.891 477.101C266.479 478.97 263.413 480.444 260.491 481.349Z" fill="#FF6A13"/>
<path fill-rule="evenodd" clip-rule="evenodd" d="M283.123 481.349C286.728 482.419 291.194 482.064 293.495 478.721C294.723 476.941 295.002 470.037 291.094 471.377C290.415 471.611 289.857 474.638 289.027 475.335C287.444 476.664 284.481 476.625 282.556 476.777C279.97 476.982 277.282 476.707 274.74 477.058C274.736 477.075 274.732 477.088 274.725 477.101C277.132 478.97 280.205 480.444 283.123 481.349Z" fill="#FF6A13"/>
<path fill-rule="evenodd" clip-rule="evenodd" d="M268.854 471.405C269.379 466.895 277.188 469.086 273.456 475.291C270.83 479.654 269.33 475.575 268.854 471.405Z" fill="#FF6A13"/>
<path fill-rule="evenodd" clip-rule="evenodd" d="M85.778 482.066C83.9646 486.552 82.0486 491.127 80.8061 495.814C79.687 500.039 78.7949 510.362 84.4112 512.388C89.7994 514.333 91.7587 505.005 91.6873 501.342C91.5814 495.834 88.9668 490.213 86.9999 485.153C86.5998 484.123 86.191 483.09 85.778 482.066Z" fill="#FF6A13"/>
<path fill-rule="evenodd" clip-rule="evenodd" d="M85.7489 481.964C81.2928 483.839 76.3361 485.68 72.3937 488.531C68.8935 491.062 63.3226 498.562 66.5719 503.15C69.8548 507.781 76.7027 502.472 78.9161 499.346C82.0886 494.86 83.5787 488.724 85.2461 483.549C85.4158 483.025 85.5823 482.488 85.7489 481.964Z" fill="#FF6A13"/>
<path fill-rule="evenodd" clip-rule="evenodd" d="M85.7628 481.964C90.2178 483.839 95.1745 485.682 99.1169 488.531C102.617 491.06 108.189 498.562 104.939 503.15C101.656 507.781 94.809 502.474 92.5956 499.346C89.3603 494.771 87.8465 488.483 86.1542 483.201C86.0223 482.791 85.8926 482.371 85.7628 481.964Z" fill="#FF6A13"/>
<path fill-rule="evenodd" clip-rule="evenodd" d="M74.3507 481.349C70.7457 482.419 66.282 482.064 63.9799 478.721C62.7527 476.941 62.4726 470.035 66.3804 471.377C67.0606 471.611 67.6196 474.638 68.449 475.335C70.032 476.664 72.9959 476.625 74.9195 476.777C77.506 476.982 80.1941 476.707 82.7341 477.058C82.7373 477.075 82.7427 477.088 82.7492 477.101C80.3401 478.97 77.2703 480.444 74.3507 481.349Z" fill="#FF6A13"/>
<path fill-rule="evenodd" clip-rule="evenodd" d="M96.9825 481.349C100.588 482.419 105.051 482.066 107.354 478.721C108.581 476.941 108.861 470.035 104.953 471.377C104.273 471.611 103.715 474.638 102.885 475.335C101.302 476.664 98.3384 476.625 96.4148 476.777C93.8283 476.982 91.1402 476.707 88.5991 477.058C88.597 477.075 88.5916 477.088 88.584 477.101C90.9931 478.97 94.064 480.444 96.9825 481.349Z" fill="#FF6A13"/>
<path fill-rule="evenodd" clip-rule="evenodd" d="M82.7114 471.405C83.2402 466.895 91.0461 469.086 87.3145 475.291C84.6902 479.656 83.1915 475.575 82.7114 471.405Z" fill="#FF6A13"/>
<path fill-rule="evenodd" clip-rule="evenodd" d="M318.484 485.112C322.705 487.375 327.27 490.161 331.942 491.369C336.193 492.469 344.242 491.408 345.017 485.784C345.765 480.356 338.094 477.918 333.957 478.398C328.797 478.998 323.386 482.475 318.866 484.898C318.741 484.965 318.609 485.043 318.484 485.112Z" fill="#FF6A13"/>
<path fill-rule="evenodd" clip-rule="evenodd" d="M318.404 485.145C320.22 490.906 325.856 512.904 336.003 507.705C340.947 505.174 336.97 496.795 334.381 493.946C330.728 489.932 324.671 487.823 319.775 485.727C319.321 485.53 318.858 485.338 318.404 485.145Z" fill="#FF6A13"/>
<path fill-rule="evenodd" clip-rule="evenodd" d="M318.395 485.128C320.216 479.362 325.852 457.356 336.003 462.567C340.942 465.103 336.972 473.455 334.381 476.309C330.726 480.328 324.669 482.445 319.77 484.549C319.312 484.744 318.849 484.935 318.395 485.128Z" fill="#FF6A13"/>
<path fill-rule="evenodd" clip-rule="evenodd" d="M317.863 498.307C318.685 502.013 318.855 507.573 315.588 510.28C313.462 512.042 307.962 511.462 309.228 507.508C309.463 506.776 312.019 506.01 312.655 505.114C313.97 503.256 313.78 499.787 313.903 497.648C314.074 494.66 313.801 491.58 314.147 488.624C314.16 488.62 314.173 488.616 314.184 488.607C315.891 491.512 317.115 495.016 317.863 498.307Z" fill="#FF6A13"/>
<path fill-rule="evenodd" clip-rule="evenodd" d="M317.863 472.172C318.687 468.461 318.862 462.903 315.588 460.196C313.462 458.438 307.956 459.01 309.228 462.968C309.461 463.695 312.024 464.462 312.655 465.358C313.97 467.214 313.78 470.688 313.903 472.828C314.074 475.818 313.802 478.896 314.148 481.852C314.161 481.856 314.174 481.863 314.184 481.869C315.886 478.968 317.123 475.46 317.863 472.172Z" fill="#FF6A13"/>
<path fill-rule="evenodd" clip-rule="evenodd" d="M309.251 488.65C305.203 487.671 306.933 478.907 312.619 483.337C316.038 486 313.46 487.931 309.251 488.65Z" fill="#FF6A13"/>
<path fill-rule="evenodd" clip-rule="evenodd" d="M318.49 413.465C322.712 415.732 327.279 418.514 331.95 419.726C336.193 420.826 344.253 419.765 345.017 414.138C345.752 408.715 338.096 406.275 333.957 406.753C328.801 407.346 323.386 410.828 318.875 413.253C318.747 413.32 318.616 413.398 318.49 413.465Z" fill="#FF6A13"/>
<path fill-rule="evenodd" clip-rule="evenodd" d="M318.395 413.5C320.22 419.263 325.852 441.26 336.003 436.06C340.944 433.527 336.972 425.156 334.381 422.309C330.722 418.293 324.666 416.182 319.77 414.08C319.312 413.883 318.849 413.69 318.395 413.5Z" fill="#FF6A13"/>
<path fill-rule="evenodd" clip-rule="evenodd" d="M318.404 413.482C320.22 407.714 325.852 385.721 336.003 390.922C340.947 393.455 336.972 401.823 334.381 404.67C330.726 408.689 324.671 410.8 319.775 412.902C319.321 413.097 318.858 413.29 318.404 413.482Z" fill="#FF6A13"/>
<path fill-rule="evenodd" clip-rule="evenodd" d="M317.863 426.65C318.687 430.37 318.862 435.91 315.588 438.626C313.466 440.386 307.954 439.831 309.228 435.863C309.461 435.138 312.024 434.369 312.655 433.475C313.97 431.617 313.78 428.144 313.903 426.003C314.074 423.013 313.802 419.934 314.148 416.979C314.16 416.975 314.173 416.968 314.184 416.962C315.886 419.858 317.121 423.364 317.863 426.65Z" fill="#FF6A13"/>
<path fill-rule="evenodd" clip-rule="evenodd" d="M317.863 400.526C318.685 396.82 318.856 391.26 315.588 388.551C313.464 386.791 307.95 387.367 309.228 391.322C309.463 392.048 312.022 392.814 312.655 393.71C313.97 395.57 313.78 399.041 313.903 401.182C314.074 404.172 313.802 407.251 314.148 410.206C314.161 410.211 314.174 410.217 314.184 410.224C315.891 407.32 317.115 403.815 317.863 400.526Z" fill="#FF6A13"/>
<path fill-rule="evenodd" clip-rule="evenodd" d="M309.251 417.005C305.203 416.028 306.937 407.251 312.619 411.681C316.042 414.353 313.46 416.284 309.251 417.005Z" fill="#FF6A13"/>
<path fill-rule="evenodd" clip-rule="evenodd" d="M318.484 341.817C322.701 344.089 327.279 346.873 331.95 348.079C336.202 349.179 344.242 348.118 345.017 342.493C345.763 337.067 338.096 334.618 333.957 335.097C328.795 335.697 323.384 339.183 318.866 341.605C318.741 341.675 318.611 341.75 318.484 341.817Z" fill="#FF6A13"/>
<path fill-rule="evenodd" clip-rule="evenodd" d="M318.395 341.852C320.22 347.62 325.852 369.615 336.003 364.412C340.944 361.881 336.972 353.511 334.381 350.664C330.722 346.646 324.666 344.535 319.77 342.432C319.312 342.237 318.849 342.045 318.395 341.852Z" fill="#FF6A13"/>
<path fill-rule="evenodd" clip-rule="evenodd" d="M318.395 341.835C320.22 336.071 325.852 314.074 336.003 319.274C340.944 321.808 336.972 330.178 334.381 333.025C330.722 337.041 324.666 339.154 319.77 341.254C319.312 341.452 318.849 341.644 318.395 341.835Z" fill="#FF6A13"/>
<path fill-rule="evenodd" clip-rule="evenodd" d="M317.863 355.014C318.685 358.723 318.856 364.28 315.588 366.989C313.462 368.751 307.956 368.173 309.228 364.218C309.461 363.49 312.024 362.724 312.655 361.827C313.97 359.97 313.78 356.497 313.903 354.358C314.074 351.383 313.758 348.239 314.169 345.325C315.908 348.153 317.121 351.753 317.863 355.014Z" fill="#FF6A13"/>
<path fill-rule="evenodd" clip-rule="evenodd" d="M317.863 328.879C318.685 325.172 318.856 319.612 315.588 316.906C313.462 315.141 307.956 315.719 309.228 319.677C309.461 320.405 312.024 321.171 312.655 322.065C313.97 323.923 313.78 327.396 313.903 329.537C314.074 332.512 313.758 335.656 314.169 338.57C315.908 335.742 317.121 332.139 317.863 328.879Z" fill="#FF6A13"/>
<path fill-rule="evenodd" clip-rule="evenodd" d="M309.251 345.359C305.201 344.383 306.937 335.623 312.619 340.035C316.046 342.701 313.451 344.63 309.251 345.359Z" fill="#FF6A13"/>
<path fill-rule="evenodd" clip-rule="evenodd" d="M318.484 198.527C322.703 200.793 327.275 203.581 331.942 204.787C336.193 205.886 344.242 204.825 345.017 199.2C345.765 193.772 338.094 191.333 333.957 191.814C328.795 192.415 323.386 195.892 318.866 198.314C318.741 198.383 318.609 198.459 318.484 198.527Z" fill="#FF6A13"/>
<path fill-rule="evenodd" clip-rule="evenodd" d="M318.404 198.561C320.22 204.325 325.856 226.319 336.003 221.121C340.947 218.589 336.97 210.211 334.381 207.363C330.73 203.35 324.671 201.239 319.775 199.142C319.321 198.946 318.858 198.752 318.404 198.561Z" fill="#FF6A13"/>
<path fill-rule="evenodd" clip-rule="evenodd" d="M318.395 198.544C320.216 192.777 325.854 170.771 336.003 175.984C340.942 178.519 336.972 186.873 334.381 189.725C330.726 193.744 324.666 195.859 319.77 197.964C319.312 198.16 318.849 198.351 318.395 198.544Z" fill="#FF6A13"/>
<path fill-rule="evenodd" clip-rule="evenodd" d="M317.863 211.721C318.685 215.429 318.856 220.99 315.588 223.697C313.334 225.567 308.032 224.783 309.28 220.823C309.468 220.23 312.206 219.159 312.796 218.238C314.031 216.307 313.815 212.825 313.927 210.647C314.07 207.819 313.747 204.775 314.184 202.023C315.891 204.928 317.115 208.432 317.863 211.721Z" fill="#FF6A13"/>
<path fill-rule="evenodd" clip-rule="evenodd" d="M317.863 185.588C318.687 181.877 318.862 176.322 315.588 173.613C313.464 171.854 307.954 172.425 309.228 176.384C309.461 177.112 312.024 177.878 312.655 178.774C313.97 180.63 313.78 184.105 313.903 186.244C314.074 189.234 313.802 192.313 314.148 195.268C314.161 195.273 314.174 195.278 314.184 195.286C315.888 192.384 317.123 188.877 317.863 185.588Z" fill="#FF6A13"/>
<path fill-rule="evenodd" clip-rule="evenodd" d="M309.251 202.067C305.203 201.088 306.933 192.325 312.619 196.753C316.038 199.417 313.46 201.346 309.251 202.067Z" fill="#FF6A13"/>
<path fill-rule="evenodd" clip-rule="evenodd" d="M318.49 126.881C322.712 129.149 327.279 131.928 331.95 133.142C336.195 134.244 344.253 133.181 345.017 127.555C345.752 122.129 338.096 119.691 333.957 120.169C328.801 120.763 323.386 124.247 318.875 126.667C318.747 126.736 318.616 126.813 318.49 126.881Z" fill="#FF6A13"/>
<path fill-rule="evenodd" clip-rule="evenodd" d="M318.395 126.915C320.22 132.681 325.852 154.677 336.003 149.475C340.944 146.944 336.972 138.573 334.381 135.726C330.722 131.709 324.666 129.599 319.77 127.495C319.312 127.299 318.849 127.107 318.395 126.915Z" fill="#FF6A13"/>
<path fill-rule="evenodd" clip-rule="evenodd" d="M318.404 126.898C320.22 121.131 325.852 99.1369 336.003 104.339C340.947 106.87 336.97 115.24 334.381 118.087C330.726 122.104 324.673 124.216 319.775 126.319C319.321 126.513 318.858 126.706 318.404 126.898Z" fill="#FF6A13"/>
<path fill-rule="evenodd" clip-rule="evenodd" d="M317.863 140.067C318.687 143.787 318.862 149.328 315.588 152.042C313.466 153.802 307.952 153.248 309.228 149.279C309.461 148.552 312.024 147.786 312.655 146.89C313.97 145.034 313.78 141.559 313.903 139.42C314.074 136.43 313.802 133.351 314.148 130.395C314.161 130.391 314.174 130.386 314.184 130.378C315.886 133.276 317.121 136.781 317.863 140.067Z" fill="#FF6A13"/>
<path fill-rule="evenodd" clip-rule="evenodd" d="M317.863 113.942C318.687 110.234 318.856 104.675 315.588 101.968C313.464 100.208 307.962 100.775 309.228 104.73C309.463 105.464 312.02 106.228 312.655 107.127C313.97 108.987 313.78 112.458 313.903 114.599C314.074 117.589 313.802 120.668 314.148 123.623C314.161 123.627 314.173 123.633 314.184 123.64C315.891 120.737 317.115 117.232 317.863 113.942Z" fill="#FF6A13"/>
<path fill-rule="evenodd" clip-rule="evenodd" d="M309.251 130.42C305.203 129.447 306.935 120.668 312.619 125.099C316.042 127.768 313.46 129.7 309.251 130.42Z" fill="#FF6A13"/>
<path fill-rule="evenodd" clip-rule="evenodd" d="M318.484 55.2351C322.699 57.5063 327.279 60.2896 331.95 61.4955C336.202 62.5943 344.242 61.5323 345.017 55.9096C345.763 50.4827 338.096 48.034 333.957 48.5136C328.795 49.1122 323.384 52.5991 318.866 55.0219C318.741 55.0912 318.611 55.1669 318.484 55.2351Z" fill="#FF6A13"/>
<path fill-rule="evenodd" clip-rule="evenodd" d="M318.395 55.2687C320.22 61.0343 325.852 83.0317 336.003 77.829C340.944 75.298 336.972 66.9267 334.381 64.0795C330.722 60.0622 324.666 57.9523 319.77 55.8489C319.312 55.6541 318.849 55.4614 318.395 55.2687Z" fill="#FF6A13"/>
<path fill-rule="evenodd" clip-rule="evenodd" d="M318.395 55.2524C320.22 49.4868 325.852 27.4905 336.003 32.6921C340.944 35.2231 336.972 43.5945 334.381 46.4416C330.722 50.4589 324.666 52.5688 319.77 54.6722C319.312 54.8681 318.849 55.0608 318.395 55.2524Z" fill="#FF6A13"/>
<path fill-rule="evenodd" clip-rule="evenodd" d="M317.863 68.4303C318.685 72.137 318.856 77.697 315.588 80.4055C313.462 82.1679 307.956 81.5898 309.228 77.6331C309.461 76.9067 312.024 76.1392 312.655 75.245C313.97 73.3873 313.78 69.9134 313.903 67.7732C314.074 64.7984 313.758 61.6536 314.169 58.7415C315.908 61.567 317.121 65.1708 317.863 68.4303Z" fill="#FF6A13"/>
<path fill-rule="evenodd" clip-rule="evenodd" d="M317.863 42.2965C318.685 38.5888 318.856 33.0299 315.588 30.3213C313.462 28.559 307.956 29.136 309.228 33.0938C309.461 33.8201 312.024 34.5866 312.655 35.4819C313.97 37.3395 313.78 40.8123 313.903 42.9536C314.074 45.9285 313.758 49.0722 314.169 51.9853C315.908 49.1577 317.121 45.5561 317.863 42.2965Z" fill="#FF6A13"/>
<path fill-rule="evenodd" clip-rule="evenodd" d="M309.251 58.7751C305.201 57.7997 306.937 49.0397 312.619 53.4522C316.046 56.1153 313.451 58.0465 309.251 58.7751Z" fill="#FF6A13"/>
<path fill-rule="evenodd" clip-rule="evenodd" d="M318.484 270.172C322.699 272.443 327.279 275.228 331.95 276.434C336.202 277.531 344.242 276.47 345.017 270.845C345.763 265.418 338.096 262.98 333.957 263.46C328.795 264.061 323.386 267.537 318.866 269.96C318.741 270.027 318.611 270.105 318.484 270.172Z" fill="#FF6A13"/>
<path fill-rule="evenodd" clip-rule="evenodd" d="M318.395 270.207C320.22 275.972 325.852 297.97 336.003 292.767C340.944 290.236 336.972 281.866 334.381 279.016C330.722 275 324.666 272.889 319.77 270.787C319.312 270.59 318.849 270.399 318.395 270.207Z" fill="#FF6A13"/>
<path fill-rule="evenodd" clip-rule="evenodd" d="M318.395 270.189C320.22 264.425 325.852 242.427 336.003 247.63C340.944 250.161 336.972 258.531 334.381 261.379C330.722 265.396 324.666 267.508 319.77 269.611C319.312 269.806 318.849 269.997 318.395 270.189Z" fill="#FF6A13"/>
<path fill-rule="evenodd" clip-rule="evenodd" d="M317.863 283.368C318.685 287.075 318.856 292.635 315.588 295.341C313.46 297.108 307.962 296.528 309.228 292.57C309.461 291.843 312.022 291.067 312.655 290.175C313.97 288.316 313.78 284.843 313.903 282.702C314.074 279.716 313.802 276.639 314.148 273.686C314.161 273.682 314.173 273.677 314.184 273.669C315.891 276.574 317.115 280.077 317.863 283.368Z" fill="#FF6A13"/>
<path fill-rule="evenodd" clip-rule="evenodd" d="M317.863 257.233C318.685 253.524 318.858 247.969 315.588 245.258C313.462 243.496 307.956 244.073 309.228 248.031C309.461 248.757 312.024 249.526 312.655 250.42C313.97 252.278 313.78 255.75 313.903 257.891C314.074 260.865 313.758 264.009 314.169 266.923C315.904 264.094 317.121 260.494 317.863 257.233Z" fill="#FF6A13"/>
<path fill-rule="evenodd" clip-rule="evenodd" d="M309.251 273.703C305.212 272.753 306.931 263.958 312.619 268.399C316.029 271.062 313.451 272.998 309.251 273.703Z" fill="#FF6A13"/>
<path fill-rule="evenodd" clip-rule="evenodd" d="M40.0993 485.112C35.879 487.375 31.3116 490.161 26.6414 491.369C22.3897 492.469 14.3416 491.408 13.5674 485.784C12.8191 480.356 20.4877 477.918 24.6248 478.398C29.7869 478.998 35.1978 482.475 39.7155 484.898C39.8431 484.965 39.975 485.043 40.0993 485.112Z" fill="#FF6A13"/>
<path fill-rule="evenodd" clip-rule="evenodd" d="M40.1804 485.145C38.3638 490.906 32.7269 512.901 22.5789 507.705C17.6362 505.174 21.6133 496.795 24.203 493.946C27.8557 489.932 33.9121 487.823 38.8071 485.727C39.2634 485.53 39.7241 485.338 40.1804 485.145Z" fill="#FF6A13"/>
<path fill-rule="evenodd" clip-rule="evenodd" d="M40.188 485.127C38.3682 479.36 32.7303 457.358 22.579 462.567C17.6406 465.102 21.6101 473.455 24.2031 476.309C27.859 480.325 33.9132 482.445 38.8137 484.549C39.2689 484.744 39.7328 484.935 40.188 485.127Z" fill="#FF6A13"/>
<path fill-rule="evenodd" clip-rule="evenodd" d="M40.72 498.307C39.8971 502.013 39.7273 507.573 42.9951 510.28C45.122 512.042 50.6215 511.462 49.3542 507.508C49.1196 506.776 46.5634 506.012 45.9276 505.114C44.6127 503.256 44.8019 499.787 44.6786 497.648C44.5078 494.66 44.7814 491.58 44.4354 488.624C44.4224 488.62 44.4094 488.616 44.3975 488.607C42.6944 491.512 41.4693 495.016 40.72 498.307Z" fill="#FF6A13"/>
<path fill-rule="evenodd" clip-rule="evenodd" d="M40.7201 472.172C39.894 468.461 39.722 462.903 42.9951 460.196C45.1221 458.438 50.627 459.01 49.3543 462.968C49.1207 463.695 46.5613 464.462 45.9276 465.358C44.6128 467.214 44.802 470.688 44.6787 472.828C44.5079 475.815 44.7815 478.899 44.4354 481.852C44.4225 481.856 44.4095 481.863 44.3976 481.869C42.6956 478.968 41.4597 475.46 40.7201 472.172Z" fill="#FF6A13"/>
<path fill-rule="evenodd" clip-rule="evenodd" d="M49.3326 488.65C53.3821 487.669 51.6477 478.909 45.9643 483.337C42.5442 486 45.1231 487.931 49.3326 488.65Z" fill="#FF6A13"/>
<path fill-rule="evenodd" clip-rule="evenodd" d="M40.0918 413.465C35.8682 415.732 31.3062 418.514 26.6338 419.726C22.3875 420.826 14.3307 419.765 13.5673 414.138C12.831 408.715 20.4866 406.275 24.6248 406.753C29.7826 407.346 35.1967 410.83 39.7079 413.253C39.8366 413.32 39.9663 413.398 40.0918 413.465Z" fill="#FF6A13"/>
<path fill-rule="evenodd" clip-rule="evenodd" d="M40.188 413.5C38.3628 419.265 32.7324 441.26 22.5789 436.06C17.6395 433.529 21.6101 425.156 24.2031 422.309C27.8611 418.293 33.9143 416.182 38.8137 414.08C39.2689 413.883 39.7328 413.69 40.188 413.5Z" fill="#FF6A13"/>
<path fill-rule="evenodd" clip-rule="evenodd" d="M40.1804 413.482C38.3617 407.714 32.7313 385.721 22.5789 390.922C17.6384 393.453 21.6122 401.821 24.203 404.67C27.8568 408.686 33.9099 410.802 38.8071 412.902C39.2624 413.097 39.7252 413.29 40.1804 413.482Z" fill="#FF6A13"/>
<path fill-rule="evenodd" clip-rule="evenodd" d="M40.72 426.65C39.8949 430.37 39.7219 435.913 42.995 438.626C45.1176 440.386 50.6301 439.831 49.3542 435.863C49.1206 435.135 46.5612 434.369 45.9275 433.475C44.6127 431.617 44.8019 428.144 44.6786 426.003C44.5078 423.013 44.7813 419.934 44.4353 416.979C44.4223 416.975 44.4094 416.968 44.3975 416.962C42.6977 419.861 41.4617 423.364 40.72 426.65Z" fill="#FF6A13"/>
<path fill-rule="evenodd" clip-rule="evenodd" d="M40.72 400.526C39.8971 396.817 39.7273 391.26 42.9951 388.551C45.1198 386.791 50.6334 387.367 49.3542 391.322C49.1196 392.048 46.5612 392.814 45.9276 393.71C44.6116 395.57 44.8019 399.041 44.6786 401.182C44.5078 404.172 44.7814 407.251 44.4354 410.206C44.4224 410.211 44.4094 410.217 44.3975 410.224C42.6945 407.318 41.4693 403.817 40.72 400.526Z" fill="#FF6A13"/>
<path fill-rule="evenodd" clip-rule="evenodd" d="M49.3326 417.005C53.3832 416.028 51.6444 407.251 45.9643 411.681C42.5398 414.353 45.1241 416.284 49.3326 417.005Z" fill="#FF6A13"/>
<path fill-rule="evenodd" clip-rule="evenodd" d="M40.0993 341.817C35.8833 344.089 31.3029 346.873 26.6338 348.079C22.3821 349.179 14.3405 348.118 13.5673 342.493C12.8212 337.067 20.4845 334.618 24.6248 335.097C29.788 335.697 35.1989 339.183 39.7155 341.605C39.8431 341.675 39.9739 341.752 40.0993 341.817Z" fill="#FF6A13"/>
<path fill-rule="evenodd" clip-rule="evenodd" d="M40.188 341.852C38.3628 347.62 32.7335 369.613 22.5789 364.412C17.6395 361.884 21.6101 353.511 24.2031 350.664C27.86 346.648 33.9154 344.537 38.8137 342.432C39.2689 342.237 39.7328 342.045 40.188 341.852Z" fill="#FF6A13"/>
<path fill-rule="evenodd" clip-rule="evenodd" d="M40.188 341.835C38.3627 336.069 32.7324 314.076 22.5789 319.274C17.6384 321.805 21.6112 330.178 24.203 333.025C27.8611 337.041 33.9153 339.152 38.8136 341.254C39.2689 341.452 39.7328 341.644 40.188 341.835Z" fill="#FF6A13"/>
<path fill-rule="evenodd" clip-rule="evenodd" d="M40.72 355.014C39.8971 358.723 39.7273 364.28 42.9951 366.989C45.122 368.751 50.6269 368.173 49.3542 364.218C49.1206 363.49 46.5612 362.724 45.9276 361.827C44.6116 359.97 44.8019 356.497 44.6786 354.358C44.5089 351.383 44.8268 348.237 44.4126 345.325C42.675 348.155 41.4628 351.753 40.72 355.014Z" fill="#FF6A13"/>
<path fill-rule="evenodd" clip-rule="evenodd" d="M40.72 328.879C39.8971 325.172 39.7273 319.612 42.9951 316.906C45.122 315.143 50.6258 315.719 49.3542 319.677C49.1206 320.405 46.5601 321.171 45.9276 322.065C44.6116 323.923 44.8019 327.396 44.6786 329.537C44.5089 332.512 44.8268 335.658 44.4126 338.57C42.6739 335.74 41.4628 332.139 40.72 328.879Z" fill="#FF6A13"/>
<path fill-rule="evenodd" clip-rule="evenodd" d="M49.3327 345.359C53.3843 344.381 51.6434 335.625 45.9644 340.035C42.5345 342.701 45.1329 344.63 49.3327 345.359Z" fill="#FF6A13"/>
<path fill-rule="evenodd" clip-rule="evenodd" d="M40.0993 198.527C35.8822 200.793 31.3094 203.58 26.6414 204.787C22.3897 205.886 14.3416 204.825 13.5673 199.2C12.8202 193.772 20.4877 191.333 24.6248 191.814C29.788 192.415 35.1967 195.892 39.7155 198.314C39.8431 198.382 39.9739 198.46 40.0993 198.527Z" fill="#FF6A13"/>
<path fill-rule="evenodd" clip-rule="evenodd" d="M40.1804 198.561C38.3627 204.325 32.7269 226.318 22.5789 221.121C17.6362 218.59 21.6133 210.211 24.203 207.363C27.8546 203.35 33.9121 201.238 38.8071 199.142C39.2624 198.946 39.7251 198.752 40.1804 198.561Z" fill="#FF6A13"/>
<path fill-rule="evenodd" clip-rule="evenodd" d="M40.188 198.544C38.3682 192.776 32.7292 170.774 22.579 175.984C17.6406 178.519 21.609 186.873 24.2031 189.725C27.859 193.744 33.9143 195.859 38.8137 197.964C39.2689 198.16 39.7339 198.351 40.188 198.544Z" fill="#FF6A13"/>
<path fill-rule="evenodd" clip-rule="evenodd" d="M40.72 211.721C39.8971 215.43 39.7273 220.989 42.9951 223.697C45.2507 225.566 50.5523 224.783 49.3034 220.823C49.1163 220.23 46.3763 219.159 45.787 218.238C44.5511 216.307 44.7673 212.825 44.657 210.647C44.5132 207.819 44.8365 204.773 44.3975 202.023C42.6934 204.929 41.4693 208.432 40.72 211.721Z" fill="#FF6A13"/>
<path fill-rule="evenodd" clip-rule="evenodd" d="M40.72 185.588C39.8949 181.877 39.7219 176.32 42.995 173.613C45.1209 171.855 50.628 172.425 49.3542 176.384C49.1206 177.112 46.5612 177.878 45.9275 178.774C44.6127 180.63 44.8019 184.105 44.6786 186.244C44.5078 189.234 44.7813 192.314 44.4353 195.268C44.4223 195.273 44.4094 195.278 44.3975 195.286C42.6955 192.383 41.4596 188.877 40.72 185.588Z" fill="#FF6A13"/>
<path fill-rule="evenodd" clip-rule="evenodd" d="M49.3326 202.067C53.3821 201.086 51.6477 192.326 45.9643 196.753C42.5431 199.418 45.1242 201.346 49.3326 202.067Z" fill="#FF6A13"/>
<path fill-rule="evenodd" clip-rule="evenodd" d="M40.0918 126.881C35.8703 129.148 31.3051 131.928 26.6338 133.142C22.3875 134.244 14.3307 133.181 13.5673 127.555C12.831 122.129 20.4866 119.691 24.6248 120.169C29.7826 120.763 35.1956 124.248 39.7079 126.667C39.8366 126.736 39.9663 126.813 40.0918 126.881Z" fill="#FF6A13"/>
<path fill-rule="evenodd" clip-rule="evenodd" d="M40.188 126.915C38.3628 132.682 32.7324 154.675 22.5789 149.475C17.6395 146.945 21.6112 138.573 24.2031 135.726C27.8611 131.71 33.9143 129.599 38.8137 127.495C39.2689 127.299 39.7338 127.107 40.188 126.915Z" fill="#FF6A13"/>
<path fill-rule="evenodd" clip-rule="evenodd" d="M40.1804 126.898C38.3627 121.131 32.7313 99.1379 22.5789 104.339C17.6373 106.868 21.6122 115.24 24.203 118.087C27.8578 122.103 33.9099 124.216 38.8071 126.319C39.2624 126.513 39.7252 126.706 40.1804 126.898Z" fill="#FF6A13"/>
<path fill-rule="evenodd" clip-rule="evenodd" d="M40.72 140.067C39.8949 143.787 39.7219 149.329 42.995 152.042C45.1176 153.801 50.6301 153.248 49.3542 149.279C49.1206 148.552 46.5612 147.786 45.9275 146.89C44.6127 145.034 44.8019 141.559 44.6786 139.42C44.5078 136.43 44.7813 133.35 44.4353 130.395C44.4223 130.391 44.4094 130.386 44.3975 130.378C42.6977 133.277 41.4617 136.78 40.72 140.067Z" fill="#FF6A13"/>
<path fill-rule="evenodd" clip-rule="evenodd" d="M40.72 113.942C39.8971 110.233 39.7273 104.675 42.9951 101.968C45.1187 100.208 50.6193 100.775 49.3542 104.73C49.1196 105.464 46.5644 106.228 45.9276 107.127C44.6116 108.987 44.8019 112.458 44.6786 114.599C44.5078 117.588 44.7814 120.668 44.4354 123.623C44.4213 123.627 44.4094 123.633 44.3975 123.64C42.6945 120.735 41.4693 117.232 40.72 113.942Z" fill="#FF6A13"/>
<path fill-rule="evenodd" clip-rule="evenodd" d="M49.3326 130.42C53.3821 129.445 51.6455 120.668 45.9643 125.099C42.5409 127.768 45.1242 129.7 49.3326 130.42Z" fill="#FF6A13"/>
<path fill-rule="evenodd" clip-rule="evenodd" d="M40.0993 55.2351C35.8833 57.5063 31.3029 60.2896 26.6338 61.4955C22.3821 62.5943 14.3405 61.5323 13.5673 55.9096C12.8212 50.4827 20.4845 48.034 24.6248 48.5136C29.788 49.1122 35.1989 52.5991 39.7155 55.0219C39.8431 55.0912 39.9739 55.1669 40.0993 55.2351Z" fill="#FF6A13"/>
<path fill-rule="evenodd" clip-rule="evenodd" d="M40.188 55.2687C38.3628 61.0365 32.7324 83.0296 22.5789 77.829C17.6395 75.2991 21.6112 66.9267 24.2031 64.0795C27.8611 60.0633 33.9153 57.9534 38.8137 55.8489C39.2689 55.6541 39.7338 55.4614 40.188 55.2687Z" fill="#FF6A13"/>
<path fill-rule="evenodd" clip-rule="evenodd" d="M40.188 55.2525C38.3638 49.4857 32.7324 27.4926 22.5789 32.6921C17.6384 35.222 21.6112 43.5945 24.203 46.4416C27.8611 50.4578 33.9153 52.5688 38.8136 54.6722C39.2689 54.8682 39.7338 55.0608 40.188 55.2525Z" fill="#FF6A13"/>
<path fill-rule="evenodd" clip-rule="evenodd" d="M40.72 68.4303C39.8971 72.1381 39.7273 77.697 42.9951 80.4055C45.122 82.1679 50.6269 81.5898 49.3542 77.6331C49.1206 76.9056 46.5612 76.1392 45.9276 75.245C44.6116 73.3873 44.8019 69.9134 44.6786 67.7732C44.5089 64.7995 44.8268 61.6525 44.4126 58.7415C42.6739 61.5691 41.4618 65.1697 40.72 68.4303Z" fill="#FF6A13"/>
<path fill-rule="evenodd" clip-rule="evenodd" d="M40.72 42.2965C39.8971 38.5877 39.7273 33.0299 42.9951 30.3213C45.122 28.559 50.6269 29.136 49.3542 33.0938C49.1206 33.8201 46.5612 34.5866 45.9276 35.4819C44.6116 37.3395 44.8019 40.8123 44.6786 42.9536C44.5089 45.9274 44.8268 49.0733 44.4126 51.9853C42.675 49.1545 41.4628 45.5572 40.72 42.2965Z" fill="#FF6A13"/>
<path fill-rule="evenodd" clip-rule="evenodd" d="M49.3327 58.7751C53.3832 57.7975 51.6445 49.0408 45.9644 53.4522C42.5345 56.1163 45.1329 58.0476 49.3327 58.7751Z" fill="#FF6A13"/>
<path fill-rule="evenodd" clip-rule="evenodd" d="M40.0993 270.172C35.8833 272.443 31.3018 275.228 26.6338 276.434C22.3811 277.531 14.3405 276.47 13.5673 270.845C12.8202 265.418 20.4866 262.98 24.6248 263.46C29.788 264.061 35.1967 267.537 39.7155 269.96C39.8431 270.027 39.9739 270.105 40.0993 270.172Z" fill="#FF6A13"/>
<path fill-rule="evenodd" clip-rule="evenodd" d="M40.188 270.207C38.3628 275.972 32.7324 297.965 22.5789 292.767C17.6395 290.236 21.6112 281.866 24.2031 279.016C27.8611 275.002 33.9153 272.889 38.8137 270.787C39.2689 270.59 39.7328 270.399 40.188 270.207Z" fill="#FF6A13"/>
<path fill-rule="evenodd" clip-rule="evenodd" d="M40.188 270.189C38.3628 264.423 32.7324 242.43 22.5789 247.63C17.6395 250.16 21.6112 258.531 24.2031 261.379C27.8611 265.395 33.9143 267.507 38.8137 269.611C39.2689 269.806 39.7328 269.997 40.188 270.189Z" fill="#FF6A13"/>
<path fill-rule="evenodd" clip-rule="evenodd" d="M40.72 283.368C39.8971 287.077 39.7273 292.635 42.9951 295.341C45.1241 297.108 50.6204 296.528 49.3542 292.57C49.1206 291.84 46.5612 291.07 45.9276 290.175C44.6116 288.318 44.8019 284.843 44.6786 282.702C44.5078 279.716 44.7814 276.639 44.4354 273.686C44.4224 273.682 44.4094 273.677 44.3975 273.669C42.6944 276.574 41.4693 280.077 40.72 283.368Z" fill="#FF6A13"/>
<path fill-rule="evenodd" clip-rule="evenodd" d="M40.7201 257.233C39.9004 253.522 39.7253 247.969 42.9951 245.258C45.1221 243.496 50.627 244.074 49.3543 248.031C49.1207 248.757 46.5602 249.525 45.9276 250.42C44.6117 252.278 44.802 255.75 44.6787 257.891C44.509 260.864 44.8269 264.011 44.4127 266.923C42.6783 264.091 41.4629 260.495 40.7201 257.233Z" fill="#FF6A13"/>
<path fill-rule="evenodd" clip-rule="evenodd" d="M49.3325 273.703C53.3723 272.751 51.6498 263.958 45.9643 268.399C42.5538 271.062 45.1317 272.998 49.3325 273.703Z" fill="#FF6A13"/>
<path d="M155.994 325.98H156.053" stroke="black" stroke-width="0.0334464" stroke-miterlimit="10"/>
<path fill-rule="evenodd" clip-rule="evenodd" d="M161.563 249.856C165.214 249.856 197.018 249.554 197.018 250.154C197.018 257.389 197.018 264.625 197.018 271.861C197.018 276.04 197.018 280.22 197.018 284.399C197.018 285.358 197.708 290.056 197.018 290.797C194.763 293.224 161.563 289.368 161.563 290.5C161.563 276.951 161.563 263.404 161.563 249.856Z" fill="white"/>
<path fill-rule="evenodd" clip-rule="evenodd" d="M287.874 257.532C287.152 260.864 286.432 264.196 285.709 267.529C285.458 268.69 278.153 269.934 276.795 270.326C278.153 270.72 285.458 271.963 285.709 273.123C286.432 276.455 287.152 279.787 287.874 283.122C288.594 279.787 289.316 276.455 290.039 273.123C290.29 271.963 297.595 270.72 298.953 270.326C297.595 269.934 290.29 268.69 290.039 267.529C289.316 264.196 288.594 260.864 287.874 257.532Z" fill="white" stroke="white" stroke-width="0.0334464" stroke-miterlimit="10"/>
<path fill-rule="evenodd" clip-rule="evenodd" d="M287.85 221.692C287.13 225.024 286.408 228.356 285.688 231.69C285.437 232.85 278.131 234.094 276.771 234.486C278.131 234.879 285.437 236.122 285.688 237.283C286.408 240.615 287.13 243.948 287.85 247.28C288.572 243.948 289.295 240.615 290.017 237.283C290.268 236.122 297.573 234.879 298.931 234.486C297.573 234.094 290.268 232.85 290.017 231.69C289.295 228.356 288.572 225.024 287.85 221.692Z" fill="white" stroke="white" stroke-width="0.0334464" stroke-miterlimit="10"/>
<path fill-rule="evenodd" clip-rule="evenodd" d="M287.911 293.33C287.189 296.662 286.468 299.994 285.748 303.326C285.495 304.487 278.192 305.732 276.832 306.124C278.19 306.515 285.495 307.76 285.748 308.921C286.468 312.253 287.189 315.585 287.911 318.919C288.633 315.585 289.355 312.253 290.076 308.921C290.329 307.76 297.634 306.515 298.992 306.124C297.634 305.732 290.329 304.487 290.076 303.326C289.355 299.994 288.633 296.662 287.911 293.33Z" fill="white" stroke="white" stroke-width="0.0334464" stroke-miterlimit="10"/>
<path fill-rule="evenodd" clip-rule="evenodd" d="M256.849 257.532C256.129 260.864 255.407 264.196 254.684 267.529C254.434 268.69 247.128 269.934 245.77 270.326C247.128 270.72 254.434 271.963 254.684 273.123C255.407 276.455 256.129 279.787 256.849 283.122C257.572 279.787 258.292 276.455 259.014 273.123C259.265 271.963 266.57 270.72 267.928 270.326C266.57 269.934 259.265 268.69 259.014 267.529C258.292 264.196 257.572 260.864 256.849 257.532Z" fill="white" stroke="white" stroke-width="0.0334464" stroke-miterlimit="10"/>
<path fill-rule="evenodd" clip-rule="evenodd" d="M256.828 221.692C256.107 225.024 255.385 228.356 254.663 231.69C254.412 232.85 247.107 234.094 245.749 234.486C247.107 234.879 254.412 236.122 254.663 237.283C255.385 240.615 256.107 243.948 256.828 247.28C257.55 243.948 258.27 240.615 258.992 237.283C259.243 236.122 266.549 234.879 267.907 234.486C266.549 234.094 259.243 232.85 258.992 231.69C258.27 228.356 257.55 225.024 256.828 221.692Z" fill="white" stroke="white" stroke-width="0.0334464" stroke-miterlimit="10"/>
<path fill-rule="evenodd" clip-rule="evenodd" d="M256.886 293.33C256.166 296.662 255.446 299.994 254.723 303.326C254.472 304.487 247.167 305.732 245.807 306.124C247.167 306.515 254.472 307.76 254.723 308.921C255.446 312.253 256.166 315.585 256.886 318.919C257.608 315.585 258.331 312.253 259.053 308.921C259.304 307.76 266.609 306.515 267.967 306.124C266.609 305.732 259.304 304.487 259.053 303.326C258.331 299.994 257.608 296.662 256.886 293.33Z" fill="white" stroke="white" stroke-width="0.0334464" stroke-miterlimit="10"/>
<path fill-rule="evenodd" clip-rule="evenodd" d="M194.802 362.442C194.082 365.774 193.361 369.106 192.639 372.441C192.388 373.601 185.083 374.844 183.725 375.236C185.083 375.628 192.388 376.873 192.639 378.035C193.361 381.365 194.082 384.699 194.802 388.029C195.524 384.699 196.246 381.365 196.969 378.035C197.22 376.873 204.525 375.628 205.883 375.236C204.525 374.844 197.22 373.601 196.969 372.441C196.246 369.106 195.524 365.774 194.802 362.442Z" fill="white" stroke="white" stroke-width="0.0334464" stroke-miterlimit="10"/>
<path fill-rule="evenodd" clip-rule="evenodd" d="M163.779 362.442C163.058 365.774 162.337 369.106 161.615 372.441C161.363 373.601 154.058 374.844 152.699 375.236C154.058 375.628 161.363 376.873 161.615 378.035C162.337 381.365 163.058 384.699 163.779 388.029C164.501 384.699 165.223 381.365 165.944 378.035C166.196 376.873 173.501 375.628 174.859 375.236C173.501 374.844 166.196 373.601 165.944 372.441C165.223 369.106 164.501 365.774 163.779 362.442Z" fill="white" stroke="white" stroke-width="0.0334464" stroke-miterlimit="10"/>
<path fill-rule="evenodd" clip-rule="evenodd" d="M225.805 362.382C225.083 365.716 224.36 369.048 223.64 372.38C223.389 373.54 216.082 374.783 214.724 375.177C216.082 375.569 223.389 376.814 223.64 377.975C224.36 381.307 225.083 384.639 225.805 387.971C226.527 384.639 227.247 381.307 227.967 377.975C228.22 376.814 235.524 375.569 236.884 375.177C235.524 374.783 228.22 373.54 227.967 372.38C227.247 369.048 226.527 365.716 225.805 362.382Z" fill="white" stroke="white" stroke-width="0.0334464" stroke-miterlimit="10"/>
<path fill-rule="evenodd" clip-rule="evenodd" d="M132.844 362.477C132.123 365.809 131.401 369.141 130.68 372.473C130.429 373.636 123.124 374.878 121.765 375.27C123.124 375.662 130.429 376.905 130.68 378.068C131.401 381.4 132.123 384.732 132.844 388.064C133.566 384.732 134.287 381.4 135.01 378.068C135.261 376.905 142.566 375.662 143.924 375.27C142.566 374.878 135.261 373.636 135.01 372.473C134.287 369.141 133.566 365.809 132.844 362.477Z" fill="white" stroke="white" stroke-width="0.0334464" stroke-miterlimit="10"/>
<path fill-rule="evenodd" clip-rule="evenodd" d="M287.807 362.433C287.085 365.768 286.364 369.098 285.644 372.432C285.391 373.592 278.086 374.835 276.726 375.229C278.086 375.619 285.391 376.864 285.644 378.027C286.364 381.356 287.085 384.691 287.807 388.021C288.529 384.691 289.249 381.356 289.972 378.027C290.223 376.864 297.528 375.619 298.888 375.229C297.528 374.835 290.223 373.592 289.972 372.432C289.249 369.098 288.529 365.768 287.807 362.433Z" fill="white" stroke="white" stroke-width="0.0334464" stroke-miterlimit="10"/>
<path fill-rule="evenodd" clip-rule="evenodd" d="M256.782 362.433C256.062 365.768 255.34 369.098 254.619 372.432C254.366 373.592 247.063 374.835 245.703 375.229C247.063 375.619 254.366 376.864 254.619 378.027C255.34 381.356 256.062 384.691 256.782 388.021C257.504 384.691 258.227 381.356 258.949 378.027C259.2 376.864 266.505 375.619 267.863 375.229C266.505 374.835 259.2 373.592 258.949 372.432C258.227 369.098 257.504 365.768 256.782 362.433Z" fill="white" stroke="white" stroke-width="0.0334464" stroke-miterlimit="10"/>
<path fill-rule="evenodd" clip-rule="evenodd" d="M194.802 398.266C194.082 401.598 193.361 404.93 192.639 408.262C192.388 409.423 185.083 410.668 183.725 411.059C185.083 411.451 192.388 412.694 192.639 413.857C193.361 417.189 194.082 420.521 194.802 423.853C195.524 420.521 196.246 417.189 196.969 413.857C197.22 412.694 204.525 411.451 205.883 411.059C204.525 410.668 197.22 409.423 196.969 408.262C196.246 404.93 195.524 401.598 194.802 398.266Z" fill="white" stroke="white" stroke-width="0.0334464" stroke-miterlimit="10"/>
<path fill-rule="evenodd" clip-rule="evenodd" d="M163.779 398.266C163.058 401.598 162.337 404.93 161.615 408.262C161.363 409.423 154.058 410.668 152.699 411.059C154.058 411.451 161.363 412.694 161.615 413.857C162.337 417.189 163.058 420.521 163.779 423.853C164.501 420.521 165.223 417.189 165.944 413.857C166.196 412.694 173.501 411.451 174.859 411.059C173.501 410.668 166.196 409.423 165.944 408.262C165.223 404.93 164.501 401.598 163.779 398.266Z" fill="white" stroke="white" stroke-width="0.0334464" stroke-miterlimit="10"/>
<path fill-rule="evenodd" clip-rule="evenodd" d="M225.805 398.205C225.083 401.537 224.36 404.869 223.64 408.204C223.389 409.364 216.082 410.607 214.724 411.001C216.082 411.391 223.389 412.636 223.64 413.798C224.36 417.128 225.083 420.462 225.805 423.792C226.527 420.462 227.247 417.128 227.967 413.798C228.22 412.636 235.524 411.391 236.884 411.001C235.524 410.607 228.22 409.364 227.967 408.204C227.247 404.869 226.527 401.537 225.805 398.205Z" fill="white" stroke="white" stroke-width="0.0334464" stroke-miterlimit="10"/>
<path fill-rule="evenodd" clip-rule="evenodd" d="M132.844 398.3C132.123 401.633 131.401 404.965 130.68 408.297C130.429 409.457 123.124 410.702 121.765 411.094C123.124 411.486 130.429 412.729 130.68 413.891C131.401 417.223 132.123 420.556 132.844 423.888C133.566 420.556 134.287 417.223 135.01 413.891C135.261 412.729 142.566 411.486 143.924 411.094C142.566 410.702 135.261 409.457 135.01 408.297C134.287 404.965 133.566 401.633 132.844 398.3Z" fill="white" stroke="white" stroke-width="0.0334464" stroke-miterlimit="10"/>
<path fill-rule="evenodd" clip-rule="evenodd" d="M287.807 398.257C287.085 401.589 286.364 404.921 285.644 408.253C285.391 409.416 278.086 410.659 276.726 411.051C278.086 411.443 285.391 412.688 285.644 413.848C286.364 417.18 287.085 420.512 287.807 423.844C288.529 420.512 289.249 417.18 289.972 413.848C290.223 412.688 297.528 411.443 298.888 411.051C297.528 410.659 290.223 409.416 289.972 408.253C289.249 404.921 288.529 401.589 287.807 398.257Z" fill="white" stroke="white" stroke-width="0.0334464" stroke-miterlimit="10"/>
<path fill-rule="evenodd" clip-rule="evenodd" d="M256.782 398.257C256.062 401.589 255.34 404.921 254.619 408.253C254.366 409.416 247.063 410.659 245.703 411.051C247.063 411.443 254.366 412.688 254.619 413.848C255.34 417.18 256.062 420.512 256.782 423.844C257.504 420.512 258.227 417.18 258.949 413.848C259.2 412.688 266.505 411.443 267.863 411.051C266.505 410.659 259.2 409.416 258.949 408.253C258.227 404.921 257.504 401.589 256.782 398.257Z" fill="white" stroke="white" stroke-width="0.0334464" stroke-miterlimit="10"/>
<path fill-rule="evenodd" clip-rule="evenodd" d="M194.802 434.09C194.082 437.42 193.361 440.754 192.639 444.086C192.388 445.246 185.083 446.491 183.725 446.881C185.083 447.275 192.388 448.518 192.639 449.678C193.361 453.013 194.082 456.343 194.802 459.677C195.524 456.343 196.246 453.013 196.969 449.678C197.22 448.518 204.525 447.275 205.883 446.881C204.525 446.491 197.22 445.246 196.969 444.086C196.246 440.754 195.524 437.42 194.802 434.09Z" fill="white" stroke="white" stroke-width="0.0334464" stroke-miterlimit="10"/>
<path fill-rule="evenodd" clip-rule="evenodd" d="M163.779 434.09C163.058 437.42 162.337 440.754 161.615 444.086C161.363 445.246 154.058 446.491 152.699 446.881C154.058 447.275 161.363 448.518 161.615 449.678C162.337 453.013 163.058 456.343 163.779 459.677C164.501 456.343 165.223 453.013 165.944 449.678C166.196 448.518 173.501 447.275 174.859 446.881C173.501 446.491 166.196 445.246 165.944 444.086C165.223 440.754 164.501 437.42 163.779 434.09Z" fill="white" stroke="white" stroke-width="0.0334464" stroke-miterlimit="10"/>
<path fill-rule="evenodd" clip-rule="evenodd" d="M225.805 434.029C225.083 437.361 224.36 440.693 223.64 444.027C223.389 445.188 216.082 446.431 214.724 446.823C216.082 447.214 223.389 448.457 223.64 449.62C224.36 452.952 225.083 456.284 225.805 459.616C226.527 456.284 227.247 452.952 227.967 449.62C228.22 448.457 235.524 447.214 236.884 446.823C235.524 446.431 228.22 445.188 227.967 444.027C227.247 440.693 226.527 437.361 225.805 434.029Z" fill="white" stroke="white" stroke-width="0.0334464" stroke-miterlimit="10"/>
<path fill-rule="evenodd" clip-rule="evenodd" d="M132.844 434.124C132.123 437.454 131.401 440.788 130.68 444.118C130.429 445.279 123.124 446.524 121.765 446.916C123.124 447.31 130.429 448.552 130.68 449.713C131.401 453.047 132.123 456.377 132.844 459.711C133.566 456.377 134.287 453.047 135.01 449.713C135.261 448.552 142.566 447.31 143.924 446.916C142.566 446.524 135.261 445.279 135.01 444.118C134.287 440.788 133.566 437.454 132.844 434.124Z" fill="white" stroke="white" stroke-width="0.0334464" stroke-miterlimit="10"/>
<path fill-rule="evenodd" clip-rule="evenodd" d="M287.807 434.081C287.085 437.411 286.364 440.745 285.644 444.077C285.391 445.238 278.086 446.483 276.726 446.875C278.086 447.266 285.391 448.509 285.644 449.67C286.364 453.004 287.085 456.334 287.807 459.668C288.529 456.334 289.249 453.004 289.972 449.67C290.223 448.509 297.528 447.266 298.888 446.875C297.528 446.483 290.223 445.238 289.972 444.077C289.249 440.745 288.529 437.411 287.807 434.081Z" fill="white" stroke="white" stroke-width="0.0334464" stroke-miterlimit="10"/>
<path fill-rule="evenodd" clip-rule="evenodd" d="M256.782 434.081C256.062 437.411 255.34 440.745 254.619 444.077C254.366 445.238 247.063 446.483 245.703 446.875C247.063 447.266 254.366 448.509 254.619 449.67C255.34 453.004 256.062 456.334 256.782 459.668C257.504 456.334 258.227 453.004 258.949 449.67C259.2 448.509 266.505 447.266 267.863 446.875C266.505 446.483 259.2 445.238 258.949 444.077C258.227 440.745 257.504 437.411 256.782 434.081Z" fill="white" stroke="white" stroke-width="0.0334464" stroke-miterlimit="10"/>
<path fill-rule="evenodd" clip-rule="evenodd" d="M194.802 329.178C194.082 332.512 193.361 335.842 192.639 339.176C192.388 340.336 185.083 341.579 183.725 341.973C185.083 342.365 192.388 343.608 192.639 344.771C193.361 348.101 194.082 351.435 194.802 354.765C195.524 351.435 196.246 348.101 196.969 344.771C197.22 343.608 204.525 342.363 205.883 341.973C204.525 341.579 197.22 340.336 196.969 339.176C196.246 335.842 195.524 332.512 194.802 329.178Z" fill="white" stroke="white" stroke-width="0.0334464" stroke-miterlimit="10"/>
<path fill-rule="evenodd" clip-rule="evenodd" d="M163.779 329.178C163.058 332.512 162.337 335.842 161.615 339.176C161.363 340.336 154.058 341.579 152.699 341.973C154.058 342.363 161.363 343.608 161.615 344.771C162.337 348.101 163.058 351.435 163.779 354.765C164.501 351.435 165.223 348.101 165.944 344.771C166.196 343.608 173.501 342.363 174.859 341.973C173.501 341.579 166.196 340.336 165.944 339.176C165.223 335.842 164.501 332.512 163.779 329.178Z" fill="white" stroke="white" stroke-width="0.0334464" stroke-miterlimit="10"/>
<path fill-rule="evenodd" clip-rule="evenodd" d="M225.805 329.119C225.083 332.451 224.36 335.783 223.64 339.115C223.389 340.276 216.082 341.521 214.724 341.913C216.082 342.305 223.389 343.55 223.64 344.71C224.36 348.042 225.083 351.374 225.805 354.706C226.527 351.374 227.247 348.042 227.967 344.71C228.22 343.55 235.524 342.305 236.884 341.913C235.524 341.521 228.22 340.276 227.967 339.115C227.247 335.783 226.527 332.451 225.805 329.119Z" fill="white" stroke="white" stroke-width="0.0334464" stroke-miterlimit="10"/>
<path fill-rule="evenodd" clip-rule="evenodd" d="M132.844 329.212C132.123 332.544 131.401 335.876 130.68 339.211C130.429 340.371 123.124 341.614 121.765 342.006C123.124 342.398 130.429 343.643 130.68 344.805C131.401 348.135 132.123 351.469 132.844 354.799C133.566 351.469 134.287 348.135 135.01 344.805C135.261 343.643 142.566 342.398 143.924 342.006C142.566 341.614 135.261 340.371 135.01 339.211C134.287 335.876 133.566 332.544 132.844 329.212Z" fill="white" stroke="white" stroke-width="0.0334464" stroke-miterlimit="10"/>
<path fill-rule="evenodd" clip-rule="evenodd" d="M287.807 329.169C287.085 332.503 286.364 335.833 285.644 339.167C285.391 340.328 278.086 341.571 276.726 341.965C278.086 342.357 285.391 343.599 285.644 344.762C286.364 348.092 287.085 351.426 287.807 354.758C288.529 351.426 289.249 348.092 289.972 344.762C290.223 343.599 297.528 342.357 298.888 341.965C297.528 341.571 290.223 340.328 289.972 339.167C289.249 335.833 288.529 332.503 287.807 329.169Z" fill="white" stroke="white" stroke-width="0.0334464" stroke-miterlimit="10"/>
<path fill-rule="evenodd" clip-rule="evenodd" d="M256.782 329.169C256.062 332.503 255.34 335.833 254.619 339.167C254.366 340.328 247.063 341.571 245.703 341.965C247.063 342.357 254.366 343.599 254.619 344.762C255.34 348.092 256.062 351.426 256.782 354.758C257.504 351.426 258.227 348.092 258.949 344.762C259.2 343.599 266.505 342.357 267.863 341.965C266.505 341.571 259.2 340.328 258.949 339.167C258.227 335.833 257.504 332.503 256.782 329.169Z" fill="white" stroke="white" stroke-width="0.0334464" stroke-miterlimit="10"/>
<path fill-rule="evenodd" clip-rule="evenodd" d="M163.779 185.887C163.058 189.219 162.337 192.551 161.615 195.883C161.363 197.045 154.058 198.289 152.699 198.681C154.058 199.072 161.363 200.316 161.615 201.478C162.337 204.81 163.058 208.142 163.779 211.474C164.501 208.142 165.223 204.81 165.944 201.478C166.196 200.316 173.501 199.072 174.859 198.681C173.501 198.289 166.196 197.045 165.944 195.883C165.223 192.551 164.501 189.219 163.779 185.887Z" fill="white" stroke="white" stroke-width="0.0334464" stroke-miterlimit="10"/>
<path fill-rule="evenodd" clip-rule="evenodd" d="M132.755 185.887C132.034 189.219 131.313 192.551 130.592 195.883C130.341 197.045 123.034 198.289 121.675 198.681C123.034 199.072 130.341 200.316 130.592 201.478C131.313 204.81 132.034 208.142 132.755 211.474C133.478 208.142 134.199 204.81 134.92 201.478C135.172 200.316 142.477 199.072 143.835 198.681C142.477 198.289 135.172 197.045 134.92 195.883C134.199 192.551 133.478 189.219 132.755 185.887Z" fill="white" stroke="white" stroke-width="0.0334464" stroke-miterlimit="10"/>
<path fill-rule="evenodd" clip-rule="evenodd" d="M225.818 185.887C225.098 189.219 224.378 192.551 223.655 195.883C223.404 197.045 216.099 198.289 214.739 198.681C216.099 199.072 223.404 200.316 223.655 201.478C224.378 204.81 225.098 208.142 225.818 211.474C226.54 208.142 227.262 204.81 227.985 201.478C228.236 200.316 235.541 199.072 236.899 198.681C235.541 198.289 228.236 197.045 227.985 195.883C227.262 192.551 226.54 189.219 225.818 185.887Z" fill="white" stroke="white" stroke-width="0.0334464" stroke-miterlimit="10"/>
<path fill-rule="evenodd" clip-rule="evenodd" d="M194.789 185.887C194.066 189.219 193.344 192.551 192.624 195.883C192.373 197.045 185.068 198.289 183.708 198.681C185.068 199.072 192.373 200.316 192.624 201.478C193.344 204.81 194.066 208.142 194.789 211.474C195.511 208.142 196.231 204.81 196.954 201.478C197.204 200.316 204.51 199.072 205.868 198.681C204.51 198.289 197.204 197.045 196.954 195.883C196.231 192.551 195.511 189.219 194.789 185.887Z" fill="white" stroke="white" stroke-width="0.0334464" stroke-miterlimit="10"/>
<path fill-rule="evenodd" clip-rule="evenodd" d="M132.772 150.038C132.05 153.37 131.328 156.703 130.607 160.035C130.355 161.196 123.051 162.44 121.691 162.832C123.051 163.225 130.356 164.468 130.607 165.629C131.328 168.961 132.05 172.293 132.772 175.627C133.493 172.293 134.214 168.961 134.936 165.629C135.187 164.468 142.492 163.225 143.851 162.832C142.492 162.44 135.187 161.196 134.936 160.035C134.214 156.703 133.493 153.37 132.772 150.038Z" fill="white" stroke="white" stroke-width="0.0334464" stroke-miterlimit="10"/>
<path fill-rule="evenodd" clip-rule="evenodd" d="M163.779 150.063C163.058 153.395 162.337 156.728 161.615 160.061C161.363 161.222 154.058 162.465 152.699 162.858C154.058 163.25 161.363 164.494 161.615 165.655C162.337 168.987 163.058 172.319 163.779 175.651C164.501 172.319 165.223 168.987 165.944 165.655C166.196 164.494 173.501 163.25 174.859 162.858C173.501 162.465 166.196 161.222 165.944 160.061C165.223 156.728 164.501 153.395 163.779 150.063Z" fill="white" stroke="white" stroke-width="0.0334464" stroke-miterlimit="10"/>
<path fill-rule="evenodd" clip-rule="evenodd" d="M194.802 150.063C194.082 153.395 193.361 156.728 192.639 160.061C192.388 161.222 185.083 162.465 183.725 162.858C185.083 163.25 192.388 164.494 192.639 165.655C193.361 168.987 194.082 172.319 194.802 175.651C195.524 172.319 196.246 168.987 196.969 165.655C197.22 164.494 204.525 163.25 205.883 162.858C204.525 162.465 197.22 161.222 196.969 160.061C196.246 156.728 195.524 153.395 194.802 150.063Z" fill="white" stroke="white" stroke-width="0.0334464" stroke-miterlimit="10"/>
<path fill-rule="evenodd" clip-rule="evenodd" d="M225.827 150.063C225.104 153.395 224.382 156.728 223.662 160.061C223.411 161.222 216.106 162.465 214.745 162.858C216.106 163.25 223.411 164.494 223.662 165.655C224.382 168.987 225.104 172.319 225.827 175.651C226.549 172.319 227.269 168.987 227.991 165.655C228.242 164.494 235.548 163.25 236.908 162.858C235.548 162.465 228.242 161.222 227.991 160.061C227.269 156.728 226.549 153.395 225.827 150.063Z" fill="white" stroke="white" stroke-width="0.0334464" stroke-miterlimit="10"/>
<path fill-rule="evenodd" clip-rule="evenodd" d="M287.844 185.844C287.124 189.176 286.401 192.508 285.679 195.841C285.428 197.003 278.123 198.245 276.765 198.637C278.123 199.03 285.428 200.274 285.679 201.435C286.401 204.767 287.124 208.099 287.844 211.432C288.564 208.099 289.286 204.767 290.008 201.435C290.259 200.274 297.565 199.03 298.923 198.637C297.565 198.245 290.259 197.003 290.008 195.841C289.286 192.508 288.564 189.176 287.844 185.844Z" fill="white" stroke="white" stroke-width="0.0334464" stroke-miterlimit="10"/>
<path fill-rule="evenodd" clip-rule="evenodd" d="M287.874 150.063C287.152 153.395 286.432 156.728 285.709 160.061C285.458 161.222 278.153 162.465 276.795 162.858C278.153 163.25 285.458 164.494 285.709 165.655C286.432 168.987 287.152 172.319 287.874 175.651C288.594 172.319 289.316 168.987 290.039 165.655C290.29 164.494 297.595 163.25 298.953 162.858C297.595 162.465 290.29 161.222 290.039 160.061C289.316 156.728 288.594 153.395 287.874 150.063Z" fill="white" stroke="white" stroke-width="0.0334464" stroke-miterlimit="10"/>
<path fill-rule="evenodd" clip-rule="evenodd" d="M256.821 185.844C256.099 189.176 255.376 192.508 254.656 195.841C254.405 197.003 247.1 198.245 245.74 198.637C247.1 199.03 254.405 200.274 254.656 201.435C255.376 204.767 256.099 208.099 256.821 211.432C257.543 208.099 258.264 204.767 258.984 201.435C259.237 200.274 266.542 199.03 267.9 198.637C266.542 198.245 259.237 197.003 258.984 195.841C258.264 192.508 257.543 189.176 256.821 185.844Z" fill="white" stroke="white" stroke-width="0.0334464" stroke-miterlimit="10"/>
<path fill-rule="evenodd" clip-rule="evenodd" d="M256.849 150.063C256.129 153.395 255.407 156.728 254.684 160.061C254.434 161.222 247.128 162.465 245.77 162.858C247.128 163.25 254.434 164.494 254.684 165.655C255.407 168.987 256.129 172.319 256.849 175.651C257.572 172.319 258.292 168.987 259.014 165.655C259.265 164.494 266.57 163.25 267.928 162.858C266.57 162.465 259.265 161.222 259.014 160.061C258.292 156.728 257.572 153.395 256.849 150.063Z" fill="white" stroke="white" stroke-width="0.0334464" stroke-miterlimit="10"/>
<path fill-rule="evenodd" clip-rule="evenodd" d="M163.779 114.241C163.058 117.573 162.337 120.905 161.615 124.238C161.363 125.398 154.058 126.642 152.699 127.035C154.058 127.427 161.363 128.67 161.615 129.831C162.337 133.164 163.058 136.497 163.779 139.829C164.501 136.497 165.223 133.164 165.944 129.831C166.196 128.67 173.501 127.427 174.859 127.035C173.501 126.642 166.196 125.398 165.944 124.238C165.223 120.905 164.501 117.573 163.779 114.241Z" fill="white" stroke="white" stroke-width="0.0334464" stroke-miterlimit="10"/>
<path fill-rule="evenodd" clip-rule="evenodd" d="M132.755 114.241C132.034 117.573 131.313 120.905 130.592 124.238C130.341 125.398 123.034 126.642 121.675 127.035C123.034 127.427 130.341 128.67 130.592 129.831C131.313 133.164 132.034 136.497 132.755 139.829C133.478 136.497 134.199 133.164 134.92 129.831C135.172 128.67 142.477 127.427 143.835 127.035C142.477 126.642 135.172 125.398 134.92 124.238C134.199 120.905 133.478 117.573 132.755 114.241Z" fill="white" stroke="white" stroke-width="0.0334464" stroke-miterlimit="10"/>
<path fill-rule="evenodd" clip-rule="evenodd" d="M225.818 114.241C225.098 117.573 224.378 120.905 223.655 124.238C223.404 125.398 216.099 126.642 214.739 127.035C216.099 127.427 223.404 128.67 223.655 129.831C224.378 133.164 225.098 136.497 225.818 139.829C226.54 136.497 227.262 133.164 227.985 129.831C228.236 128.67 235.541 127.427 236.899 127.035C235.541 126.642 228.236 125.398 227.985 124.238C227.262 120.905 226.54 117.573 225.818 114.241Z" fill="white" stroke="white" stroke-width="0.0334464" stroke-miterlimit="10"/>
<path fill-rule="evenodd" clip-rule="evenodd" d="M194.789 114.241C194.066 117.573 193.344 120.905 192.624 124.238C192.373 125.398 185.068 126.642 183.708 127.035C185.068 127.427 192.373 128.67 192.624 129.831C193.344 133.164 194.066 136.497 194.789 139.829C195.511 136.497 196.231 133.164 196.954 129.831C197.204 128.67 204.51 127.427 205.868 127.035C204.51 126.642 197.204 125.398 196.954 124.238C196.231 120.905 195.511 117.573 194.789 114.241Z" fill="white" stroke="white" stroke-width="0.0334464" stroke-miterlimit="10"/>
<path fill-rule="evenodd" clip-rule="evenodd" d="M132.772 78.3919C132.05 81.724 131.328 85.0561 130.607 88.3882C130.356 89.5498 123.051 90.7936 121.691 91.1855C123.051 91.5785 130.355 92.8223 130.607 93.9828C131.328 97.3149 132.05 100.647 132.772 103.979C133.493 100.647 134.214 97.3149 134.936 93.9828C135.187 92.8223 142.492 91.5785 143.851 91.1855C142.492 90.7936 135.187 89.5498 134.936 88.3882C134.214 85.0561 133.493 81.724 132.772 78.3919Z" fill="white" stroke="white" stroke-width="0.0334464" stroke-miterlimit="10"/>
<path fill-rule="evenodd" clip-rule="evenodd" d="M163.779 78.4179C163.058 81.75 162.337 85.0821 161.615 88.4142C161.363 89.5758 154.058 90.8196 152.699 91.2115C154.058 91.6034 161.363 92.8472 161.615 94.0088C162.337 97.3409 163.058 100.673 163.779 104.005C164.501 100.673 165.223 97.3409 165.944 94.0088C166.196 92.8472 173.501 91.6034 174.859 91.2115C173.501 90.8196 166.196 89.5758 165.944 88.4142C165.223 85.0821 164.501 81.75 163.779 78.4179Z" fill="white" stroke="white" stroke-width="0.0334464" stroke-miterlimit="10"/>
<path fill-rule="evenodd" clip-rule="evenodd" d="M194.802 78.4179C194.082 81.75 193.361 85.0821 192.639 88.4142C192.388 89.5758 185.083 90.8196 183.725 91.2115C185.083 91.6034 192.388 92.8472 192.639 94.0088C193.361 97.3409 194.082 100.673 194.802 104.005C195.524 100.673 196.246 97.3409 196.969 94.0088C197.22 92.8472 204.525 91.6034 205.883 91.2115C204.525 90.8196 197.22 89.5758 196.969 88.4142C196.246 85.0821 195.524 81.75 194.802 78.4179Z" fill="white" stroke="white" stroke-width="0.0334464" stroke-miterlimit="10"/>
<path fill-rule="evenodd" clip-rule="evenodd" d="M225.827 78.4179C225.104 81.75 224.382 85.0821 223.662 88.4142C223.411 89.5758 216.106 90.8196 214.745 91.2115C216.106 91.6034 223.411 92.8472 223.662 94.0088C224.382 97.3409 225.104 100.673 225.827 104.005C226.549 100.673 227.269 97.3409 227.991 94.0088C228.242 92.8472 235.548 91.6034 236.908 91.2115C235.548 90.8196 228.242 89.5758 227.991 88.4142C227.269 85.0821 226.549 81.75 225.827 78.4179Z" fill="white" stroke="white" stroke-width="0.0334464" stroke-miterlimit="10"/>
<path fill-rule="evenodd" clip-rule="evenodd" d="M287.844 114.198C287.124 117.53 286.401 120.863 285.679 124.195C285.428 125.356 278.123 126.6 276.765 126.992C278.123 127.384 285.428 128.628 285.679 129.789C286.401 133.121 287.124 136.453 287.844 139.786C288.564 136.453 289.286 133.121 290.008 129.789C290.259 128.628 297.565 127.384 298.923 126.992C297.565 126.6 290.259 125.356 290.008 124.195C289.286 120.863 288.564 117.53 287.844 114.198Z" fill="white" stroke="white" stroke-width="0.0334464" stroke-miterlimit="10"/>
<path fill-rule="evenodd" clip-rule="evenodd" d="M287.874 78.4179C287.152 81.75 286.432 85.0821 285.709 88.4142C285.458 89.5758 278.153 90.8196 276.795 91.2115C278.153 91.6034 285.458 92.8472 285.709 94.0088C286.432 97.3409 287.152 100.673 287.874 104.005C288.594 100.673 289.316 97.3409 290.039 94.0088C290.29 92.8472 297.595 91.6034 298.953 91.2115C297.595 90.8196 290.29 89.5758 290.039 88.4142C289.316 85.0821 288.594 81.75 287.874 78.4179Z" fill="white" stroke="white" stroke-width="0.0334464" stroke-miterlimit="10"/>
<path fill-rule="evenodd" clip-rule="evenodd" d="M256.821 114.198C256.099 117.53 255.376 120.863 254.656 124.195C254.405 125.356 247.1 126.6 245.74 126.992C247.1 127.384 254.405 128.628 254.656 129.789C255.376 133.121 256.099 136.453 256.821 139.786C257.543 136.453 258.264 133.121 258.984 129.789C259.237 128.628 266.542 127.384 267.9 126.992C266.542 126.6 259.237 125.356 258.984 124.195C258.264 120.863 257.543 117.53 256.821 114.198Z" fill="white" stroke="white" stroke-width="0.0334464" stroke-miterlimit="10"/>
<path fill-rule="evenodd" clip-rule="evenodd" d="M256.849 78.4179C256.129 81.75 255.407 85.0821 254.684 88.4142C254.434 89.5758 247.128 90.8196 245.77 91.2115C247.128 91.6034 254.434 92.8472 254.684 94.0088C255.407 97.3409 256.129 100.673 256.849 104.005C257.572 100.673 258.292 97.3409 259.014 94.0088C259.265 92.8472 266.57 91.6034 267.928 91.2115C266.57 90.8196 259.265 89.5758 259.014 88.4142C258.292 85.0821 257.572 81.75 256.849 78.4179Z" fill="white" stroke="white" stroke-width="0.0334464" stroke-miterlimit="10"/>
<path fill-rule="evenodd" clip-rule="evenodd" d="M70.6862 293.388C69.965 296.723 69.2438 300.053 68.5225 303.387C68.2717 304.547 60.9664 305.79 59.6072 306.184C60.9664 306.576 68.2717 307.819 68.5225 308.982C69.2438 312.311 69.965 315.646 70.6862 318.978C71.4085 315.646 72.1298 312.311 72.851 308.982C73.103 307.819 80.4083 306.576 81.7664 306.184C80.4083 305.79 73.103 304.547 72.851 303.387C72.1298 300.053 71.4085 296.723 70.6862 293.388Z" fill="white" stroke="white" stroke-width="0.0334464" stroke-miterlimit="10"/>
<path fill-rule="evenodd" clip-rule="evenodd" d="M70.7457 257.584C70.0244 260.916 69.3032 264.248 68.582 267.58C68.3311 268.741 61.0258 269.984 59.6666 270.378C61.0258 270.77 68.3311 272.015 68.582 273.175C69.3032 276.507 70.0244 279.839 70.7457 283.171C71.468 279.839 72.1892 276.507 72.9115 273.175C73.1624 272.015 80.4677 270.77 81.8258 270.378C80.4677 269.984 73.1624 268.741 72.9115 267.58C72.1892 264.248 71.468 260.916 70.7457 257.584Z" fill="white" stroke="white" stroke-width="0.0334464" stroke-miterlimit="10"/>
<path fill-rule="evenodd" clip-rule="evenodd" d="M70.7824 221.701C70.0612 225.033 69.34 228.366 68.6187 231.698C68.3668 232.859 61.0626 234.103 59.7034 234.496C61.0626 234.887 68.3668 236.131 68.6187 237.293C69.34 240.625 70.0612 243.957 70.7824 247.289C71.5047 243.957 72.226 240.625 72.9483 237.293C73.1991 236.131 80.5044 234.887 81.8626 234.496C80.5044 234.103 73.1991 232.859 72.9483 231.698C72.226 228.366 71.5047 225.033 70.7824 221.701Z" fill="white" stroke="white" stroke-width="0.0334464" stroke-miterlimit="10"/>
<path fill-rule="evenodd" clip-rule="evenodd" d="M70.7089 362.442C69.9877 365.774 69.2665 369.106 68.5452 372.441C68.2944 373.601 60.988 374.844 59.6288 375.236C60.988 375.628 68.2944 376.873 68.5452 378.035C69.2665 381.365 69.9877 384.699 70.7089 388.029C71.4302 384.699 72.1514 381.365 72.8737 378.035C73.1246 376.873 80.4299 375.628 81.788 375.236C80.4299 374.844 73.1246 373.601 72.8737 372.441C72.1514 369.106 71.4302 365.774 70.7089 362.442Z" fill="white" stroke="white" stroke-width="0.0334464" stroke-miterlimit="10"/>
<path fill-rule="evenodd" clip-rule="evenodd" d="M70.7089 398.266C69.9877 401.598 69.2665 404.93 68.5452 408.262C68.2944 409.423 60.988 410.668 59.6288 411.059C60.988 411.451 68.2944 412.694 68.5452 413.857C69.2665 417.189 69.9877 420.521 70.7089 423.853C71.4302 420.521 72.1514 417.189 72.8737 413.857C73.1246 412.694 80.4299 411.451 81.788 411.059C80.4299 410.668 73.1246 409.423 72.8737 408.262C72.1514 404.93 71.4302 401.598 70.7089 398.266Z" fill="white" stroke="white" stroke-width="0.0334464" stroke-miterlimit="10"/>
<path fill-rule="evenodd" clip-rule="evenodd" d="M70.7089 434.09C69.9877 437.42 69.2665 440.754 68.5452 444.086C68.2944 445.246 60.988 446.491 59.6288 446.881C60.988 447.275 68.2944 448.518 68.5452 449.678C69.2665 453.013 69.9877 456.343 70.7089 459.677C71.4302 456.343 72.1514 453.013 72.8737 449.678C73.1246 448.518 80.4299 447.275 81.788 446.881C80.4299 446.491 73.1246 445.246 72.8737 444.086C72.1514 440.754 71.4302 437.42 70.7089 434.09Z" fill="white" stroke="white" stroke-width="0.0334464" stroke-miterlimit="10"/>
<path fill-rule="evenodd" clip-rule="evenodd" d="M70.7089 329.178C69.9877 332.512 69.2665 335.842 68.5452 339.176C68.2944 340.336 60.988 341.579 59.6288 341.973C60.988 342.363 68.2944 343.608 68.5452 344.771C69.2665 348.101 69.9877 351.435 70.7089 354.765C71.4302 351.435 72.1514 348.101 72.8737 344.771C73.1246 343.608 80.4299 342.365 81.788 341.973C80.4299 341.579 73.1246 340.336 72.8737 339.176C72.1514 335.842 71.4302 332.512 70.7089 329.178Z" fill="white" stroke="white" stroke-width="0.0334464" stroke-miterlimit="10"/>
<path fill-rule="evenodd" clip-rule="evenodd" d="M70.7316 185.878C70.0104 189.21 69.2881 192.542 68.5669 195.875C68.316 197.036 61.0107 198.28 59.6515 198.672C61.0107 199.064 68.3149 200.309 68.5669 201.469C69.2881 204.801 70.0104 208.133 70.7316 211.465C71.4529 208.133 72.1741 204.801 72.8964 201.469C73.1473 200.309 80.4526 199.064 81.8118 198.672C80.4526 198.28 73.1473 197.036 72.8964 195.875C72.1741 192.542 71.4529 189.21 70.7316 185.878Z" fill="white" stroke="white" stroke-width="0.0334464" stroke-miterlimit="10"/>
<path fill-rule="evenodd" clip-rule="evenodd" d="M70.7089 150.063C69.9877 153.395 69.2665 156.728 68.5452 160.061C68.2944 161.222 60.988 162.465 59.6288 162.858C60.988 163.25 68.2944 164.494 68.5452 165.655C69.2665 168.987 69.9877 172.319 70.7089 175.651C71.4302 172.319 72.1514 168.987 72.8737 165.655C73.1246 164.494 80.4299 163.25 81.788 162.858C80.4299 162.465 73.1246 161.222 72.8737 160.061C72.1514 156.728 71.4302 153.395 70.7089 150.063Z" fill="white" stroke="white" stroke-width="0.0334464" stroke-miterlimit="10"/>
<path fill-rule="evenodd" clip-rule="evenodd" d="M70.7316 114.232C70.0104 117.565 69.2881 120.897 68.5669 124.229C68.316 125.39 61.0107 126.634 59.6515 127.027C61.0107 127.418 68.316 128.662 68.5669 129.824C69.2881 133.156 70.0104 136.488 70.7316 139.82C71.4529 136.488 72.1741 133.156 72.8964 129.824C73.1473 128.662 80.4526 127.418 81.8118 127.027C80.4526 126.634 73.1473 125.39 72.8964 124.229C72.1741 120.897 71.4529 117.565 70.7316 114.232Z" fill="white" stroke="white" stroke-width="0.0334464" stroke-miterlimit="10"/>
<path fill-rule="evenodd" clip-rule="evenodd" d="M70.7089 78.4179C69.9877 81.75 69.2665 85.0821 68.5452 88.4142C68.2944 89.5758 60.988 90.8196 59.6288 91.2115C60.988 91.6034 68.2944 92.8472 68.5452 94.0088C69.2665 97.3409 69.9877 100.673 70.7089 104.005C71.4302 100.673 72.1514 97.3409 72.8737 94.0088C73.1246 92.8472 80.4299 91.6034 81.788 91.2115C80.4299 90.8196 73.1246 89.5758 72.8737 88.4142C72.1514 85.0821 71.4302 81.75 70.7089 78.4179Z" fill="white" stroke="white" stroke-width="0.0334464" stroke-miterlimit="10"/>
<path fill-rule="evenodd" clip-rule="evenodd" d="M101.71 293.388C100.989 296.723 100.268 300.053 99.5463 303.387C99.2944 304.547 91.9891 305.79 90.6299 306.184C91.9891 306.576 99.2944 307.819 99.5463 308.982C100.268 312.311 100.989 315.646 101.71 318.978C102.431 315.646 103.152 312.311 103.875 308.982C104.126 307.819 111.432 306.576 112.79 306.184C111.432 305.79 104.126 304.547 103.875 303.387C103.152 300.053 102.431 296.723 101.71 293.388Z" fill="white" stroke="white" stroke-width="0.0334464" stroke-miterlimit="10"/>
<path fill-rule="evenodd" clip-rule="evenodd" d="M101.769 257.584C101.048 260.916 100.327 264.248 99.6058 267.58C99.3539 268.741 92.0496 269.984 90.6904 270.378C92.0496 270.77 99.3539 272.015 99.6058 273.175C100.327 276.507 101.048 279.839 101.769 283.171C102.492 279.839 103.213 276.507 103.934 273.175C104.186 272.015 111.492 270.77 112.85 270.378C111.492 269.984 104.186 268.741 103.934 267.58C103.213 264.248 102.492 260.916 101.769 257.584Z" fill="white" stroke="white" stroke-width="0.0334464" stroke-miterlimit="10"/>
<path fill-rule="evenodd" clip-rule="evenodd" d="M101.806 221.701C101.085 225.033 100.364 228.366 99.6425 231.698C99.3906 232.859 92.0853 234.103 90.7261 234.496C92.0853 234.887 99.3906 236.131 99.6425 237.293C100.364 240.625 101.085 243.957 101.806 247.289C102.527 243.957 103.25 240.625 103.971 237.293C104.223 236.131 111.527 234.887 112.886 234.496C111.527 234.103 104.223 232.859 103.971 231.698C103.25 228.366 102.527 225.033 101.806 221.701Z" fill="white" stroke="white" stroke-width="0.0334464" stroke-miterlimit="10"/>
<path fill-rule="evenodd" clip-rule="evenodd" d="M101.733 362.442C101.011 365.774 100.289 369.106 99.5678 372.441C99.317 373.601 92.0117 374.844 90.6525 375.236C92.0117 375.628 99.3159 376.873 99.5678 378.035C100.289 381.365 101.011 384.699 101.733 388.029C102.454 384.699 103.175 381.365 103.896 378.035C104.148 376.873 111.454 375.628 112.813 375.236C111.454 374.844 104.148 373.601 103.896 372.441C103.175 369.106 102.454 365.774 101.733 362.442Z" fill="white" stroke="white" stroke-width="0.0334464" stroke-miterlimit="10"/>
<path fill-rule="evenodd" clip-rule="evenodd" d="M101.733 398.266C101.011 401.598 100.289 404.93 99.5678 408.262C99.317 409.423 92.0117 410.668 90.6525 411.059C92.0117 411.451 99.317 412.694 99.5678 413.857C100.289 417.189 101.011 420.521 101.733 423.853C102.454 420.521 103.175 417.189 103.896 413.857C104.148 412.694 111.454 411.451 112.813 411.059C111.454 410.668 104.148 409.423 103.896 408.262C103.175 404.93 102.454 401.598 101.733 398.266Z" fill="white" stroke="white" stroke-width="0.0334464" stroke-miterlimit="10"/>
<path fill-rule="evenodd" clip-rule="evenodd" d="M101.733 434.09C101.011 437.42 100.289 440.754 99.5678 444.086C99.317 445.246 92.0117 446.491 90.6525 446.881C92.0117 447.275 99.317 448.518 99.5678 449.678C100.289 453.013 101.011 456.343 101.733 459.677C102.454 456.343 103.175 453.013 103.896 449.678C104.148 448.518 111.454 447.275 112.813 446.881C111.454 446.491 104.148 445.246 103.896 444.086C103.175 440.754 102.454 437.42 101.733 434.09Z" fill="white" stroke="white" stroke-width="0.0334464" stroke-miterlimit="10"/>
<path fill-rule="evenodd" clip-rule="evenodd" d="M101.733 329.178C101.011 332.512 100.289 335.842 99.5678 339.176C99.317 340.336 92.0117 341.579 90.6525 341.973C92.0117 342.365 99.317 343.608 99.5678 344.771C100.289 348.101 101.011 351.435 101.733 354.765C102.454 351.435 103.175 348.101 103.896 344.771C104.148 343.608 111.454 342.363 112.813 341.973C111.454 341.579 104.148 340.336 103.896 339.176C103.175 335.842 102.454 332.512 101.733 329.178Z" fill="white" stroke="white" stroke-width="0.0334464" stroke-miterlimit="10"/>
<path fill-rule="evenodd" clip-rule="evenodd" d="M101.754 185.878C101.033 189.21 100.312 192.542 99.5907 195.875C99.3398 197.036 92.0345 198.28 90.6753 198.672C92.0345 199.064 99.3398 200.309 99.5907 201.469C100.312 204.801 101.033 208.133 101.754 211.465C102.477 208.133 103.198 204.801 103.919 201.469C104.171 200.309 111.476 199.064 112.834 198.672C111.476 198.28 104.171 197.036 103.919 195.875C103.198 192.542 102.477 189.21 101.754 185.878Z" fill="white" stroke="white" stroke-width="0.0334464" stroke-miterlimit="10"/>
<path fill-rule="evenodd" clip-rule="evenodd" d="M101.733 150.063C101.011 153.395 100.289 156.728 99.5678 160.061C99.317 161.222 92.0117 162.465 90.6525 162.858C92.0117 163.25 99.317 164.494 99.5678 165.655C100.289 168.987 101.011 172.319 101.733 175.651C102.454 172.319 103.175 168.987 103.896 165.655C104.148 164.494 111.454 163.25 112.813 162.858C111.454 162.465 104.148 161.222 103.896 160.061C103.175 156.728 102.454 153.395 101.733 150.063Z" fill="white" stroke="white" stroke-width="0.0334464" stroke-miterlimit="10"/>
<path fill-rule="evenodd" clip-rule="evenodd" d="M101.754 114.232C101.033 117.565 100.312 120.897 99.5907 124.229C99.3398 125.39 92.0345 126.634 90.6753 127.027C92.0345 127.418 99.3398 128.662 99.5907 129.824C100.312 133.156 101.033 136.488 101.754 139.82C102.477 136.488 103.198 133.156 103.919 129.824C104.171 128.662 111.476 127.418 112.834 127.027C111.476 126.634 104.171 125.39 103.919 124.229C103.198 120.897 102.477 117.565 101.754 114.232Z" fill="white" stroke="white" stroke-width="0.0334464" stroke-miterlimit="10"/>
<path fill-rule="evenodd" clip-rule="evenodd" d="M101.733 78.4179C101.011 81.75 100.289 85.0821 99.5678 88.4142C99.317 89.5758 92.0117 90.8196 90.6525 91.2115C92.0117 91.6034 99.317 92.8472 99.5678 94.0088C100.289 97.3409 101.011 100.673 101.733 104.005C102.454 100.673 103.175 97.3409 103.896 94.0088C104.148 92.8472 111.454 91.6034 112.813 91.2115C111.454 90.8196 104.148 89.5758 103.896 88.4142C103.175 85.0821 102.454 81.75 101.733 78.4179Z" fill="white" stroke="white" stroke-width="0.0334464" stroke-miterlimit="10"/>
<path d="M159 245H177.281C180.601 245.073 183.975 245.368 187.127 246.519C193.338 248.657 198.666 253.335 201.543 259.305C204.299 264.932 204.759 271.654 202.81 277.616C200.944 283.424 196.843 288.427 191.621 291.476C187.983 293.643 183.802 294.768 179.599 295H159V287.349C165.684 287.3 172.37 287.359 179.054 287.319C183.625 287.251 188.146 285.351 191.386 282.086C194.332 279.168 196.196 275.138 196.41 270.962C196.653 266.927 195.343 262.843 192.87 259.67C189.611 255.414 184.376 252.816 179.059 252.754C174.912 252.751 170.769 252.754 166.622 252.754C166.627 254.711 166.598 256.67 166.635 258.63C164.093 258.665 161.537 258.57 159 258.676V245Z" fill="#FF6A13"/>
</g>
<defs>
<clipPath id="clip0_6_2">
<rect width="360" height="540" fill="white"/>
</clipPath>
</defs>
</svg>
