<svg width="360" height="540" viewBox="0 0 360 540" fill="none" xmlns="http://www.w3.org/2000/svg">
<path d="M329.556 0.5H30.4444C13.9066 0.5 0.5 13.9066 0.5 30.4445V509.556C0.5 526.093 13.9066 539.5 30.4444 539.5H329.556C346.093 539.5 359.5 526.093 359.5 509.556V30.4445C359.5 13.9066 346.093 0.5 329.556 0.5Z" fill="white" stroke="#2A3244"/>
<rect x="38" y="38" width="284" height="464" rx="6" stroke="#FF6A13" stroke-width="4"/>
<rect x="45" y="45" width="270" height="450" rx="4" fill="#FF6A13"/>
<path d="M62 69.004L76.365 69.004C78.9742 69.0609 81.6254 69.2907 84.1022 70.1886C88.9823 71.856 93.1691 75.5047 95.4295 80.1611C97.5954 84.5497 97.9567 89.792 96.4253 94.442C94.9589 98.9719 91.7364 102.874 87.6336 105.251C84.7744 106.942 81.4888 107.819 78.1864 108L62 108L62 102.033C67.2519 101.995 72.5059 102.041 77.7579 102.009C81.3502 101.957 84.9026 100.475 87.4487 97.9285C89.7637 95.652 91.228 92.5091 91.396 89.2524C91.5872 86.1053 90.5578 82.9203 88.6146 80.4456C86.0538 77.1257 81.9405 75.1 77.7621 75.0515C74.5038 75.0494 71.2476 75.0515 67.9893 75.0515C67.9935 76.5776 67.9704 78.1059 67.9998 79.6341C66.002 79.6615 63.9936 79.5877 62 79.6699L62 69.004Z" fill="white"/>
<path d="M298 108L283.635 108C281.026 107.943 278.375 107.713 275.898 106.815C271.018 105.148 266.831 101.499 264.57 96.8429C262.405 92.4543 262.043 87.212 263.575 82.562C265.041 78.0321 268.264 74.1304 272.366 71.7527C275.226 70.0622 278.511 69.1853 281.814 69.004L298 69.004L298 74.9714C292.748 75.0094 287.494 74.963 282.242 74.9946C278.65 75.0473 275.097 76.5292 272.551 79.0755C270.236 81.352 268.772 84.4949 268.604 87.7516C268.413 90.8987 269.442 94.0837 271.385 96.5584C273.946 99.8783 278.06 101.904 282.238 101.952C285.496 101.955 288.752 101.952 292.011 101.952C292.006 100.426 292.03 98.8981 292 97.3699C293.998 97.3425 296.006 97.4163 298 97.3341L298 108Z" fill="white"/>
<path d="M99.8074 69.004L106.483 69.004C110.513 76.2167 116.448 86.8632 120.579 94.2945C125.206 85.8987 130.009 77.385 134.666 69.004L141.293 69.004C140.506 70.4307 126.035 96.7001 123.565 101.184C123.565 103.437 123.561 105.719 123.567 108L117.567 108C117.567 105.781 117.567 103.482 117.567 101.184C113.953 94.6176 104.199 77.0093 99.8074 69.004Z" fill="white"/>
<path d="M158.768 69.004L180.237 108L173.922 108L158.768 80.4175L143.613 108L137.299 108L158.768 69.004Z" fill="white"/>
<path d="M189.005 69.004C190.99 68.9977 192.939 68.9998 194.925 69.004C194.921 79.7985 194.943 91.1838 194.918 101.976C201.232 102.004 207.545 101.966 213.861 101.976C213.867 103.97 213.865 106.006 213.861 108L189.005 108C189.003 95.2093 189.003 81.7947 189.005 69.004Z" fill="white"/>
<path d="M235.653 69.059C240.103 68.716 244.654 69.9865 248.283 72.5944C251.596 74.9477 254.151 78.3666 255.451 82.2277C256.828 86.2613 256.826 90.7501 255.453 94.7837C254.035 98.9899 251.128 102.663 247.38 105.019C243.837 107.271 239.549 108.3 235.374 107.924C231.042 107.562 226.868 105.666 223.724 102.657C220.497 99.6068 218.359 95.4179 217.811 91.0024C217.214 86.4511 218.284 81.7013 220.8 77.8661C224.036 72.8295 229.687 69.4451 235.653 69.059ZM234.381 75.3834C231.021 76.0607 227.968 78.1164 226.045 80.9636C224.354 83.4334 223.539 86.4856 223.763 89.4731C223.984 92.7345 225.46 95.8816 227.811 98.14C229.955 100.23 232.819 101.561 235.797 101.833C238.657 102.113 241.603 101.432 244.046 99.9131C246.751 98.2479 248.831 95.5883 249.783 92.549C250.749 89.5055 250.58 86.1125 249.306 83.1832C248.104 80.3834 245.917 78.0258 243.221 76.6237C240.533 75.2044 237.355 74.7665 234.381 75.3834Z" fill="white"/>
<path d="M62 129.004L76.365 129.004C78.9742 129.061 81.6254 129.291 84.1022 130.189C88.9823 131.856 93.1691 135.505 95.4295 140.161C97.5954 144.55 97.9567 149.792 96.4253 154.442C94.9589 158.972 91.7364 162.874 87.6336 165.251C84.7744 166.942 81.4888 167.819 78.1864 168L62 168L62 162.033C67.2519 161.995 72.5059 162.041 77.7579 162.009C81.3502 161.957 84.9026 160.475 87.4487 157.928C89.7637 155.652 91.228 152.509 91.396 149.252C91.5872 146.105 90.5578 142.92 88.6146 140.446C86.0538 137.126 81.9405 135.1 77.7621 135.052C74.5038 135.049 71.2476 135.052 67.9893 135.052C67.9935 136.578 67.9704 138.106 67.9998 139.634C66.002 139.661 63.9936 139.588 62 139.67L62 129.004Z" fill="white"/>
<path d="M298 168L283.635 168C281.026 167.943 278.375 167.713 275.898 166.815C271.018 165.148 266.831 161.499 264.57 156.843C262.405 152.454 262.043 147.212 263.575 142.562C265.041 138.032 268.264 134.13 272.366 131.753C275.226 130.062 278.511 129.185 281.814 129.004L298 129.004L298 134.971C292.748 135.009 287.494 134.963 282.242 134.995C278.65 135.047 275.097 136.529 272.551 139.076C270.236 141.352 268.772 144.495 268.604 147.752C268.413 150.899 269.442 154.084 271.385 156.558C273.946 159.878 278.06 161.904 282.238 161.952C285.496 161.955 288.752 161.952 292.011 161.952C292.006 160.426 292.03 158.898 292 157.37C293.998 157.342 296.006 157.416 298 157.334L298 168Z" fill="white"/>
<path d="M99.8074 129.004L106.483 129.004C110.513 136.217 116.448 146.863 120.579 154.294C125.206 145.899 130.009 137.385 134.666 129.004L141.293 129.004C140.506 130.431 126.035 156.7 123.565 161.184C123.565 163.437 123.561 165.719 123.567 168L117.567 168C117.567 165.781 117.567 163.482 117.567 161.184C113.953 154.618 104.199 137.009 99.8074 129.004Z" fill="white"/>
<path d="M158.768 129.004L180.237 168L173.922 168L158.768 140.417L143.613 168L137.299 168L158.768 129.004Z" fill="white"/>
<path d="M189.005 129.004C190.99 128.998 192.939 129 194.925 129.004C194.921 139.799 194.943 151.184 194.918 161.976C201.232 162.004 207.545 161.966 213.861 161.976C213.867 163.97 213.865 166.006 213.861 168L189.005 168C189.003 155.209 189.003 141.795 189.005 129.004Z" fill="white"/>
<path d="M235.653 129.059C240.103 128.716 244.654 129.987 248.283 132.594C251.596 134.948 254.151 138.367 255.451 142.228C256.828 146.261 256.826 150.75 255.453 154.784C254.035 158.99 251.128 162.663 247.38 165.019C243.837 167.271 239.549 168.3 235.374 167.924C231.042 167.562 226.868 165.666 223.724 162.657C220.497 159.607 218.359 155.418 217.811 151.002C217.214 146.451 218.284 141.701 220.8 137.866C224.036 132.829 229.687 129.445 235.653 129.059ZM234.381 135.383C231.021 136.061 227.968 138.116 226.045 140.964C224.354 143.433 223.539 146.486 223.763 149.473C223.984 152.735 225.46 155.882 227.811 158.14C229.955 160.23 232.819 161.561 235.797 161.833C238.657 162.113 241.603 161.432 244.046 159.913C246.751 158.248 248.831 155.588 249.783 152.549C250.749 149.505 250.58 146.112 249.306 143.183C248.104 140.383 245.917 138.026 243.221 136.624C240.533 135.204 237.355 134.766 234.381 135.383Z" fill="white"/>
<path d="M62 189.004L76.365 189.004C78.9742 189.061 81.6254 189.291 84.1022 190.189C88.9823 191.856 93.1691 195.505 95.4295 200.161C97.5954 204.55 97.9567 209.792 96.4253 214.442C94.9589 218.972 91.7364 222.874 87.6336 225.251C84.7744 226.942 81.4888 227.819 78.1864 228L62 228L62 222.033C67.2519 221.995 72.5059 222.041 77.7579 222.009C81.3502 221.957 84.9026 220.475 87.4487 217.928C89.7637 215.652 91.228 212.509 91.396 209.252C91.5872 206.105 90.5578 202.92 88.6146 200.446C86.0538 197.126 81.9405 195.1 77.7621 195.052C74.5038 195.049 71.2476 195.052 67.9893 195.052C67.9935 196.578 67.9704 198.106 67.9998 199.634C66.002 199.661 63.9936 199.588 62 199.67L62 189.004Z" fill="white"/>
<path d="M298 228L283.635 228C281.026 227.943 278.375 227.713 275.898 226.815C271.018 225.148 266.831 221.499 264.57 216.843C262.405 212.454 262.043 207.212 263.575 202.562C265.041 198.032 268.264 194.13 272.366 191.753C275.226 190.062 278.511 189.185 281.814 189.004L298 189.004L298 194.971C292.748 195.009 287.494 194.963 282.242 194.995C278.65 195.047 275.097 196.529 272.551 199.076C270.236 201.352 268.772 204.495 268.604 207.752C268.413 210.899 269.442 214.084 271.385 216.558C273.946 219.878 278.06 221.904 282.238 221.952C285.496 221.955 288.752 221.952 292.011 221.952C292.006 220.426 292.03 218.898 292 217.37C293.998 217.342 296.006 217.416 298 217.334L298 228Z" fill="white"/>
<path d="M99.8074 189.004L106.483 189.004C110.513 196.217 116.448 206.863 120.579 214.294C125.206 205.899 130.009 197.385 134.666 189.004L141.293 189.004C140.506 190.431 126.035 216.7 123.565 221.184C123.565 223.437 123.561 225.719 123.567 228L117.567 228C117.567 225.781 117.567 223.482 117.567 221.184C113.953 214.618 104.199 197.009 99.8074 189.004Z" fill="white"/>
<path d="M158.768 189.004L180.237 228L173.922 228L158.768 200.417L143.613 228L137.299 228L158.768 189.004Z" fill="white"/>
<path d="M189.005 189.004C190.99 188.998 192.939 189 194.925 189.004C194.921 199.799 194.943 211.184 194.918 221.976C201.232 222.004 207.545 221.966 213.861 221.976C213.867 223.97 213.865 226.006 213.861 228L189.005 228C189.003 215.209 189.003 201.795 189.005 189.004Z" fill="white"/>
<path d="M235.653 189.059C240.103 188.716 244.654 189.987 248.283 192.594C251.596 194.948 254.151 198.367 255.451 202.228C256.828 206.261 256.826 210.75 255.453 214.784C254.035 218.99 251.128 222.663 247.38 225.019C243.837 227.271 239.549 228.3 235.374 227.924C231.042 227.562 226.868 225.666 223.724 222.657C220.497 219.607 218.359 215.418 217.811 211.002C217.214 206.451 218.284 201.701 220.8 197.866C224.036 192.829 229.687 189.445 235.653 189.059ZM234.381 195.383C231.021 196.061 227.968 198.116 226.045 200.964C224.354 203.433 223.539 206.486 223.763 209.473C223.984 212.735 225.46 215.882 227.811 218.14C229.955 220.23 232.819 221.561 235.797 221.833C238.657 222.113 241.603 221.432 244.046 219.913C246.751 218.248 248.831 215.588 249.783 212.549C250.749 209.505 250.58 206.112 249.306 203.183C248.104 200.383 245.917 198.026 243.221 196.624C240.533 195.204 237.355 194.766 234.381 195.383Z" fill="white"/>
<path d="M298 347.996L283.635 347.996C281.026 347.939 278.375 347.709 275.898 346.811C271.018 345.144 266.831 341.495 264.57 336.839C262.405 332.45 262.043 327.208 263.575 322.558C265.041 318.028 268.264 314.126 272.366 311.749C275.226 310.058 278.511 309.181 281.814 309L298 309L298 314.967C292.748 315.005 287.494 314.959 282.242 314.991C278.65 315.043 275.097 316.525 272.551 319.072C270.236 321.348 268.772 324.491 268.604 327.748C268.413 330.895 269.442 334.08 271.385 336.554C273.946 339.874 278.06 341.9 282.238 341.948C285.496 341.951 288.752 341.948 292.011 341.948C292.007 340.422 292.03 338.894 292 337.366C293.998 337.339 296.006 337.412 298 337.33L298 347.996Z" fill="white"/>
<path d="M62 309L76.365 309C78.9742 309.057 81.6254 309.287 84.1022 310.185C88.9823 311.852 93.1691 315.501 95.4295 320.157C97.5954 324.546 97.9567 329.788 96.4253 334.438C94.959 338.968 91.7364 342.87 87.6336 345.247C84.7744 346.938 81.4888 347.815 78.1864 347.996L62 347.996L62 342.029C67.2519 341.991 72.5059 342.037 77.7579 342.005C81.3502 341.953 84.9026 340.471 87.4487 337.924C89.7637 335.648 91.228 332.505 91.396 329.248C91.5872 326.101 90.5578 322.916 88.6146 320.442C86.0538 317.122 81.9405 315.096 77.7621 315.048C74.5038 315.045 71.2476 315.048 67.9893 315.048C67.9935 316.574 67.9704 318.102 67.9998 319.63C66.002 319.658 63.9936 319.584 62 319.666L62 309Z" fill="white"/>
<path d="M260.193 347.996L253.517 347.996C249.487 340.783 243.552 330.137 239.421 322.706C234.794 331.101 229.991 339.615 225.334 347.996L218.707 347.996C219.494 346.569 233.965 320.3 236.435 315.816C236.435 313.563 236.439 311.281 236.433 309L242.433 309C242.433 311.219 242.433 313.518 242.433 315.816C246.047 322.382 255.801 339.991 260.193 347.996Z" fill="white"/>
<path d="M201.232 347.996L179.763 309L186.078 309L201.232 336.583L216.387 309L222.701 309L201.232 347.996Z" fill="white"/>
<path d="M170.995 347.996C169.01 348.002 167.061 348 165.075 347.996C165.079 337.201 165.057 325.816 165.082 315.024C158.768 314.996 152.455 315.034 146.139 315.024C146.133 313.03 146.135 310.994 146.139 309L170.995 309C170.997 321.791 170.997 335.205 170.995 347.996Z" fill="white"/>
<path d="M124.347 347.941C119.897 348.284 115.346 347.013 111.717 344.406C108.404 342.052 105.849 338.633 104.549 334.772C103.172 330.739 103.174 326.25 104.547 322.216C105.965 318.01 108.872 314.337 112.62 311.981C116.163 309.729 120.451 308.7 124.626 309.076C128.958 309.438 133.132 311.334 136.276 314.343C139.503 317.393 141.641 321.582 142.189 325.998C142.786 330.549 141.716 335.299 139.2 339.134C135.964 344.171 130.313 347.555 124.347 347.941ZM125.619 341.617C128.979 340.939 132.032 338.884 133.955 336.036C135.646 333.567 136.461 330.514 136.237 327.527C136.016 324.265 134.54 321.118 132.189 318.86C130.045 316.77 127.181 315.439 124.203 315.167C121.343 314.887 118.397 315.568 115.954 317.087C113.249 318.752 111.169 321.412 110.217 324.451C109.251 327.495 109.42 330.888 110.694 333.817C111.896 336.617 114.083 338.974 116.779 340.376C119.467 341.796 122.645 342.234 125.619 341.617Z" fill="white"/>
<path d="M298 407.996L283.635 407.996C281.026 407.939 278.375 407.709 275.898 406.811C271.018 405.144 266.831 401.495 264.57 396.839C262.405 392.45 262.043 387.208 263.575 382.558C265.041 378.028 268.264 374.126 272.366 371.749C275.226 370.058 278.511 369.181 281.814 369L298 369L298 374.967C292.748 375.005 287.494 374.959 282.242 374.991C278.65 375.043 275.097 376.525 272.551 379.072C270.236 381.348 268.772 384.491 268.604 387.748C268.413 390.895 269.442 394.08 271.385 396.554C273.946 399.874 278.06 401.9 282.238 401.948C285.496 401.951 288.752 401.948 292.011 401.948C292.007 400.422 292.03 398.894 292 397.366C293.998 397.339 296.006 397.412 298 397.33L298 407.996Z" fill="white"/>
<path d="M62 369L76.365 369C78.9742 369.057 81.6254 369.287 84.1022 370.185C88.9823 371.852 93.1691 375.501 95.4295 380.157C97.5954 384.546 97.9567 389.788 96.4253 394.438C94.959 398.968 91.7364 402.87 87.6336 405.247C84.7744 406.938 81.4888 407.815 78.1864 407.996L62 407.996L62 402.029C67.2519 401.991 72.5059 402.037 77.7579 402.005C81.3502 401.953 84.9026 400.471 87.4487 397.924C89.7637 395.648 91.228 392.505 91.396 389.248C91.5872 386.101 90.5578 382.916 88.6146 380.442C86.0538 377.122 81.9405 375.096 77.7621 375.048C74.5038 375.045 71.2476 375.048 67.9893 375.048C67.9935 376.574 67.9704 378.102 67.9998 379.63C66.002 379.658 63.9936 379.584 62 379.666L62 369Z" fill="white"/>
<path d="M260.193 407.996L253.517 407.996C249.487 400.783 243.552 390.137 239.421 382.706C234.794 391.101 229.991 399.615 225.334 407.996L218.707 407.996C219.494 406.569 233.965 380.3 236.435 375.816C236.435 373.563 236.439 371.281 236.433 369L242.433 369C242.433 371.219 242.433 373.518 242.433 375.816C246.047 382.382 255.801 399.991 260.193 407.996Z" fill="white"/>
<path d="M201.232 407.996L179.763 369L186.078 369L201.232 396.583L216.387 369L222.701 369L201.232 407.996Z" fill="white"/>
<path d="M170.995 407.996C169.01 408.002 167.061 408 165.075 407.996C165.079 397.201 165.057 385.816 165.082 375.024C158.768 374.996 152.455 375.034 146.139 375.024C146.133 373.03 146.135 370.994 146.139 369L170.995 369C170.997 381.791 170.997 395.205 170.995 407.996Z" fill="white"/>
<path d="M124.347 407.941C119.897 408.284 115.346 407.013 111.717 404.406C108.404 402.052 105.849 398.633 104.549 394.772C103.172 390.739 103.174 386.25 104.547 382.216C105.965 378.01 108.872 374.337 112.62 371.981C116.163 369.729 120.451 368.7 124.626 369.076C128.958 369.438 133.132 371.334 136.276 374.343C139.503 377.393 141.641 381.582 142.189 385.998C142.786 390.549 141.716 395.299 139.2 399.134C135.964 404.171 130.313 407.555 124.347 407.941ZM125.619 401.617C128.979 400.939 132.032 398.884 133.955 396.036C135.646 393.567 136.461 390.514 136.237 387.527C136.016 384.265 134.54 381.118 132.189 378.86C130.045 376.77 127.181 375.439 124.203 375.167C121.343 374.887 118.397 375.568 115.954 377.087C113.249 378.752 111.169 381.412 110.217 384.451C109.251 387.495 109.42 390.888 110.694 393.817C111.896 396.617 114.083 398.974 116.779 400.376C119.467 401.796 122.645 402.234 125.619 401.617Z" fill="white"/>
<path d="M298 467.996L283.635 467.996C281.026 467.939 278.375 467.709 275.898 466.811C271.018 465.144 266.831 461.495 264.57 456.839C262.405 452.45 262.043 447.208 263.575 442.558C265.041 438.028 268.264 434.126 272.366 431.749C275.226 430.058 278.511 429.181 281.814 429L298 429L298 434.967C292.748 435.005 287.494 434.959 282.242 434.991C278.65 435.043 275.097 436.525 272.551 439.072C270.236 441.348 268.772 444.491 268.604 447.748C268.413 450.895 269.442 454.08 271.385 456.554C273.946 459.874 278.06 461.9 282.238 461.948C285.496 461.951 288.752 461.948 292.011 461.948C292.007 460.422 292.03 458.894 292 457.366C293.998 457.339 296.006 457.412 298 457.33L298 467.996Z" fill="white"/>
<path d="M62 429L76.365 429C78.9742 429.057 81.6254 429.287 84.1022 430.185C88.9823 431.852 93.1691 435.501 95.4295 440.157C97.5954 444.546 97.9567 449.788 96.4253 454.438C94.959 458.968 91.7364 462.87 87.6336 465.247C84.7744 466.938 81.4888 467.815 78.1864 467.996L62 467.996L62 462.029C67.2519 461.991 72.5059 462.037 77.7579 462.005C81.3502 461.953 84.9026 460.471 87.4487 457.924C89.7637 455.648 91.228 452.505 91.396 449.248C91.5872 446.101 90.5578 442.916 88.6146 440.442C86.0538 437.122 81.9405 435.096 77.7621 435.048C74.5038 435.045 71.2476 435.048 67.9893 435.048C67.9935 436.574 67.9704 438.102 67.9998 439.63C66.002 439.658 63.9936 439.584 62 439.666L62 429Z" fill="white"/>
<path d="M260.193 467.996L253.517 467.996C249.487 460.783 243.552 450.137 239.421 442.706C234.794 451.101 229.991 459.615 225.334 467.996L218.707 467.996C219.494 466.569 233.965 440.3 236.435 435.816C236.435 433.563 236.439 431.281 236.433 429L242.433 429C242.433 431.219 242.433 433.518 242.433 435.816C246.047 442.382 255.801 459.991 260.193 467.996Z" fill="white"/>
<path d="M201.232 467.996L179.763 429L186.078 429L201.232 456.583L216.387 429L222.701 429L201.232 467.996Z" fill="white"/>
<path d="M170.995 467.996C169.01 468.002 167.061 468 165.075 467.996C165.079 457.201 165.057 445.816 165.082 435.024C158.768 434.996 152.455 435.034 146.139 435.024C146.133 433.03 146.135 430.994 146.139 429L170.995 429C170.997 441.791 170.997 455.205 170.995 467.996Z" fill="white"/>
<path d="M124.347 467.941C119.897 468.284 115.346 467.013 111.717 464.406C108.404 462.052 105.849 458.633 104.549 454.772C103.172 450.739 103.174 446.25 104.547 442.216C105.965 438.01 108.872 434.337 112.62 431.981C116.163 429.729 120.451 428.7 124.626 429.076C128.958 429.438 133.132 431.334 136.276 434.343C139.503 437.393 141.641 441.582 142.189 445.998C142.786 450.549 141.716 455.299 139.2 459.134C135.964 464.171 130.313 467.555 124.347 467.941ZM125.619 461.617C128.979 460.939 132.032 458.884 133.955 456.036C135.646 453.567 136.461 450.514 136.237 447.527C136.016 444.265 134.54 441.118 132.189 438.86C130.045 436.77 127.181 435.439 124.203 435.167C121.343 434.887 118.397 435.568 115.954 437.087C113.249 438.752 111.169 441.412 110.217 444.451C109.251 447.495 109.42 450.888 110.694 453.817C111.896 456.617 114.083 458.974 116.779 460.376C119.467 461.796 122.645 462.234 125.619 461.617Z" fill="white"/>
<g clip-path="url(#clip0_13_19496)">
<path fill-rule="evenodd" clip-rule="evenodd" d="M169.876 258.238C172.376 256.03 175.594 254.631 179.134 254.435V262.311C177.772 262.483 176.51 262.998 175.495 263.808L169.876 258.238ZM164.801 268.641C164.999 265.133 166.41 261.943 168.638 259.465L174.257 265.035C173.44 266.041 172.92 267.292 172.747 268.641H164.801ZM168.638 279.536C166.41 277.082 164.999 273.868 164.801 270.359H172.747C172.92 271.708 173.44 272.96 174.257 273.966L168.638 279.536ZM179.109 284.566C175.569 284.369 172.351 282.971 169.851 280.762L175.47 275.193C176.485 276.002 177.747 276.518 179.109 276.689V284.566ZM190.124 280.762C187.649 282.971 184.406 284.369 180.866 284.566V276.689C182.228 276.518 183.49 276.002 184.505 275.193L190.124 280.762ZM195.199 270.359C195.001 273.868 193.59 277.057 191.362 279.536L185.743 273.966C186.56 272.96 187.079 271.708 187.253 270.359H195.199ZM191.362 259.465C193.59 261.918 195.001 265.133 195.199 268.641H187.253C187.079 267.292 186.56 266.041 185.743 265.035L191.362 259.465ZM180.866 254.435C184.406 254.631 187.624 256.03 190.124 258.238L184.505 263.808C183.465 262.998 182.228 262.483 180.866 262.311V254.435ZM133.736 251.638C135.048 251.638 136.137 252.693 136.137 254.018C136.137 255.318 134.528 256.398 133.736 256.398C132.944 256.398 133.241 256.349 133.018 256.3C133.265 256.545 133.587 256.741 133.934 256.839C134.454 257.011 135.072 257.011 135.716 256.766C136.063 256.643 136.36 256.496 136.632 256.3C137.399 255.735 137.87 254.925 138.068 254.018C138.266 253.085 138.191 252.079 137.894 251.22C137.771 250.828 137.572 250.484 137.35 250.165C137.3 250.092 137.251 250.018 137.201 249.945C136.261 248.791 134.899 248.252 133.488 248.227C132.028 248.202 130.518 248.669 129.354 249.527C129.255 249.601 129.156 249.675 129.057 249.748C128.463 250.214 127.993 250.754 127.646 251.343C126.879 252.57 126.607 254.018 126.755 255.465C127.919 265.697 148.068 262.704 156.855 260.25C157.87 259.98 158.836 259.735 159.653 259.538C159.974 259.465 160.321 259.661 160.395 259.98C160.445 260.201 160.37 260.446 160.222 260.593L151.236 269.5L160.222 278.407C160.395 278.554 160.469 278.775 160.395 279.02C160.321 279.339 159.974 279.536 159.653 279.462C158.836 279.266 157.87 279.02 156.855 278.726C148.068 276.272 127.919 273.279 126.755 283.535C126.607 284.983 126.879 286.43 127.646 287.657C128.018 288.222 128.488 288.786 129.057 289.228C129.156 289.326 129.255 289.399 129.354 289.448C130.542 290.307 132.028 290.773 133.488 290.749C134.899 290.7 136.261 290.184 137.201 289.031C137.251 288.982 137.325 288.909 137.35 288.835C137.572 288.541 137.771 288.172 137.894 287.804C138.191 286.921 138.266 285.94 138.068 285.007C137.87 284.124 137.399 283.265 136.632 282.725C136.36 282.529 136.063 282.382 135.716 282.259C135.072 282.038 134.454 282.038 133.934 282.21C133.587 282.308 133.265 282.505 133.018 282.774C133.241 282.652 132.944 282.652 133.736 282.652C134.528 282.652 136.137 283.707 136.137 285.032C136.137 286.357 135.048 287.387 133.736 287.387C132.127 287.387 131.137 285.989 131.087 284.541C131.087 284.369 131.087 284.222 131.112 284.075C131.161 283.388 131.434 282.701 131.879 282.161C132.3 281.67 132.894 281.253 133.587 281.008C134.355 280.787 135.246 280.787 136.162 281.081C136.607 281.253 137.028 281.449 137.399 281.719C138.439 282.48 139.058 283.56 139.33 284.737C139.602 285.891 139.503 287.142 139.132 288.222C138.959 288.712 138.711 289.178 138.414 289.596C138.34 289.669 138.266 289.743 138.216 289.865C137.028 291.313 135.32 291.976 133.538 292.025C131.83 292.049 130.047 291.509 128.636 290.479C128.513 290.405 128.389 290.307 128.29 290.234C127.597 289.669 127.027 289.031 126.582 288.344C124.206 284.541 125.716 278.8 128.785 275.88C131.062 273.696 134.404 272.665 137.944 272.641C145.271 272.592 151.806 275.463 157.177 277.573L157.623 277.671L146.137 269.672C146.063 269.623 146.063 269.377 146.137 269.328L157.623 261.329L157.177 261.452C151.806 263.538 145.271 266.409 137.944 266.359C134.404 266.335 131.062 265.304 128.785 263.145C125.716 260.201 124.206 254.508 126.582 250.705C127.003 250.018 127.572 249.356 128.29 248.816C128.389 248.742 128.513 248.644 128.636 248.57C130.023 247.589 131.805 247 133.538 247.049C135.295 247.098 137.003 247.761 138.216 249.233C138.29 249.307 138.365 249.405 138.414 249.503C138.711 249.92 138.934 250.362 139.132 250.877C139.503 251.957 139.602 253.183 139.33 254.337C139.058 255.514 138.439 256.618 137.399 257.355C137.028 257.624 136.607 257.821 136.162 257.993C135.246 258.312 134.355 258.312 133.587 258.066C132.894 257.845 132.3 257.428 131.879 256.913C131.434 256.373 131.161 255.735 131.112 255.024C131.087 254.876 131.087 254.729 131.087 254.557C131.161 253.036 132.151 251.638 133.736 251.638ZM62 269.132C70.3914 268.936 88.5853 269.083 96.0361 264.47C102.15 269.304 111.482 268.887 118.809 268.887C118.215 268.74 117.621 268.592 117.027 268.445C114.304 267.684 111.705 266.629 109.576 265.133C106.556 263.023 104.452 259.391 104.477 256.079C104.477 255.416 104.576 254.778 104.749 254.165C104.923 253.551 105.195 252.938 105.566 252.398V252.374H105.591C106.284 251.368 107.2 250.582 108.314 250.165C108.537 250.092 108.759 250.018 108.982 249.969C109.205 249.92 109.452 249.871 109.675 249.871H109.7C110.715 249.797 111.755 250.018 112.596 250.484C113.166 250.803 113.661 251.22 114.032 251.736C114.428 252.251 114.651 252.864 114.725 253.527C114.774 254.214 114.626 254.95 114.205 255.711C113.289 257.33 110.839 257.943 109.329 256.766C108.908 256.447 108.611 255.956 108.611 255.269C108.611 254.288 109.428 253.502 110.418 253.502C111.408 253.502 112.225 254.656 112.225 255.269C112.225 255.882 112.175 255.784 112.076 256.005C112.547 255.833 112.918 255.514 113.141 255.122C113.438 254.582 113.537 254.091 113.512 253.625C113.463 253.208 113.314 252.815 113.066 252.472C112.819 252.104 112.448 251.809 112.027 251.588C111.383 251.245 110.616 251.049 109.824 251.122H109.799C109.626 251.147 109.452 251.171 109.279 251.196C109.106 251.245 108.933 251.294 108.784 251.343C107.943 251.662 107.2 252.3 106.655 253.11L106.631 253.134C106.334 253.576 106.111 254.042 105.987 254.533C105.838 255.048 105.764 255.563 105.764 256.128C105.739 259.023 107.645 262.262 110.344 264.151C112.349 265.574 114.824 266.556 117.423 267.292C118.314 267.537 119.23 267.758 120.146 267.954C119.453 267.611 118.834 267.218 118.314 266.703C115.492 264.053 117.497 261.231 120.839 260.716C119.676 270.163 138.414 268.936 144.157 269.181V269.917C138.439 270.163 119.676 268.911 120.839 278.358C117.497 277.867 115.492 275.07 118.314 272.42C118.834 271.929 119.453 271.488 120.146 271.193C119.23 271.34 118.339 271.586 117.423 271.831C114.824 272.543 112.349 273.573 110.344 274.947C107.621 276.861 105.739 280.075 105.764 282.995C105.764 283.535 105.838 284.05 105.987 284.566C106.136 285.056 106.334 285.523 106.631 285.964L106.655 286.013C107.2 286.798 107.943 287.436 108.784 287.755C108.933 287.804 109.106 287.878 109.279 287.927C109.428 287.952 109.626 287.976 109.799 288.001H109.824C110.616 288.05 111.383 287.878 112.027 287.535C112.448 287.314 112.819 286.97 113.066 286.627C113.314 286.283 113.463 285.891 113.512 285.473C113.537 284.983 113.438 284.492 113.141 283.977C112.918 283.56 112.547 283.241 112.076 283.093C112.175 283.314 112.225 283.216 112.225 283.854C112.225 284.492 111.408 285.621 110.418 285.621C109.428 285.621 108.611 284.835 108.611 283.854C108.611 283.167 108.883 282.701 109.329 282.333C110.839 281.18 113.314 281.793 114.205 283.388C114.626 284.148 114.799 284.885 114.725 285.596C114.675 286.234 114.428 286.872 114.032 287.387C113.661 287.878 113.166 288.32 112.596 288.639C111.755 289.105 110.715 289.326 109.7 289.252H109.675C109.452 289.252 109.205 289.203 108.982 289.178C108.759 289.105 108.537 289.031 108.314 288.958C107.225 288.541 106.284 287.731 105.591 286.725H105.566C105.195 286.16 104.923 285.572 104.749 284.934C104.576 284.32 104.477 283.707 104.477 283.02C104.452 279.732 106.556 276.1 109.576 273.966C111.705 272.445 114.329 271.414 117.027 270.653C117.621 270.482 118.19 270.334 118.785 270.212C111.458 270.212 102.15 269.77 96.0361 274.628C88.5853 269.917 70.3914 270.089 62 269.868V269.132ZM226.24 251.638C224.928 251.638 223.838 252.693 223.838 254.018C223.838 255.318 225.447 256.398 226.24 256.398C227.032 256.398 226.735 256.349 226.957 256.3C226.71 256.545 226.388 256.741 226.042 256.839C225.522 257.011 224.928 257.011 224.259 256.766C223.913 256.643 223.616 256.496 223.343 256.3C222.576 255.735 222.106 254.925 221.908 254.018C221.71 253.085 221.759 252.079 222.081 251.22C222.205 250.828 222.403 250.484 222.626 250.165C222.675 250.092 222.725 250.018 222.799 249.945C223.739 248.791 225.101 248.252 226.512 248.227C227.972 248.202 229.458 248.669 230.646 249.527C230.745 249.601 230.844 249.675 230.943 249.748C231.537 250.214 232.007 250.754 232.354 251.343C233.121 252.57 233.393 254.018 233.245 255.465C232.057 265.697 211.932 262.704 203.145 260.25C202.13 259.98 201.164 259.735 200.347 259.538C200.001 259.465 199.679 259.661 199.58 259.98C199.531 260.201 199.605 260.446 199.778 260.593L208.788 269.5L199.778 278.407C199.605 278.554 199.531 278.775 199.58 279.02C199.654 279.339 200.001 279.536 200.347 279.462C201.164 279.266 202.13 279.02 203.145 278.726C211.932 276.272 232.081 273.279 233.245 283.535C233.393 284.983 233.121 286.43 232.354 287.657C231.982 288.222 231.512 288.786 230.943 289.228C230.844 289.326 230.745 289.399 230.646 289.448C229.458 290.307 227.948 290.773 226.512 290.749C225.101 290.7 223.739 290.184 222.799 289.031C222.749 288.982 222.675 288.909 222.626 288.835C222.403 288.541 222.229 288.172 222.081 287.804C221.784 286.921 221.71 285.94 221.908 285.007C222.106 284.124 222.576 283.265 223.343 282.725C223.616 282.529 223.913 282.382 224.259 282.259C224.928 282.038 225.522 282.038 226.042 282.21C226.388 282.308 226.71 282.505 226.957 282.774C226.735 282.652 227.032 282.652 226.24 282.652C225.447 282.652 223.838 283.707 223.838 285.032C223.838 286.357 224.903 287.387 226.24 287.387C227.849 287.387 228.839 285.989 228.888 284.541C228.888 284.369 228.888 284.222 228.888 284.075C228.839 283.388 228.542 282.701 228.121 282.161C227.7 281.67 227.106 281.253 226.413 281.008C225.645 280.787 224.779 280.787 223.838 281.081C223.368 281.253 222.972 281.449 222.601 281.719C221.561 282.48 220.918 283.56 220.67 284.737C220.422 285.891 220.497 287.142 220.868 288.222C221.041 288.712 221.289 289.178 221.586 289.596C221.66 289.669 221.734 289.743 221.784 289.865C222.972 291.313 224.68 291.976 226.438 292.025C228.146 292.049 229.928 291.509 231.339 290.479C231.463 290.405 231.586 290.307 231.685 290.234C232.378 289.669 232.948 289.031 233.393 288.344C235.77 284.541 234.26 278.8 231.19 275.88C228.913 273.696 225.571 272.665 222.031 272.641C214.704 272.592 208.169 275.463 202.798 277.573L202.352 277.671L213.838 269.672C213.888 269.623 213.888 269.377 213.838 269.328L202.352 261.329L202.798 261.452C208.169 263.538 214.704 266.409 222.031 266.359C225.571 266.335 228.913 265.304 231.19 263.145C234.26 260.201 235.77 254.508 233.393 250.705C232.948 250.018 232.403 249.356 231.685 248.816C231.586 248.742 231.463 248.644 231.339 248.57C229.953 247.589 228.17 247 226.438 247.049C224.68 247.098 222.972 247.761 221.784 249.233C221.71 249.307 221.66 249.405 221.586 249.503C221.289 249.92 221.041 250.362 220.868 250.877C220.497 251.957 220.398 253.183 220.67 254.337C220.942 255.514 221.561 256.618 222.601 257.355C222.972 257.624 223.368 257.821 223.838 257.993C224.754 258.312 225.645 258.312 226.413 258.066C227.106 257.845 227.7 257.428 228.121 256.913C228.542 256.373 228.814 255.735 228.888 255.024C228.913 254.876 228.913 254.729 228.888 254.557C228.839 253.036 227.849 251.638 226.24 251.638ZM298 269.132C289.584 268.936 271.415 269.083 263.964 264.47C257.85 269.304 248.518 268.887 241.191 268.887C241.785 268.74 242.379 268.592 242.948 268.445C245.671 267.684 248.27 266.629 250.424 265.133C253.444 263.023 255.548 259.391 255.523 256.079C255.523 255.416 255.424 254.778 255.251 254.165C255.077 253.551 254.805 252.938 254.434 252.398V252.374C253.741 251.368 252.825 250.582 251.711 250.165C251.488 250.092 251.265 250.018 251.043 249.969C250.82 249.92 250.572 249.871 250.349 249.871H250.325C249.285 249.797 248.27 250.018 247.429 250.484C246.859 250.803 246.339 251.22 245.993 251.736C245.622 252.251 245.374 252.864 245.325 253.527C245.275 254.214 245.424 254.95 245.844 255.711C246.76 257.33 249.236 257.943 250.721 256.766C251.142 256.447 251.414 255.956 251.414 255.269C251.414 254.288 250.622 253.502 249.632 253.502C248.641 253.502 247.849 254.656 247.849 255.269C247.849 255.882 247.899 255.784 247.998 256.005C247.528 255.833 247.156 255.514 246.933 255.122C246.636 254.582 246.537 254.091 246.562 253.625C246.587 253.208 246.76 252.815 247.008 252.472C247.28 252.104 247.627 251.809 248.047 251.588C248.691 251.245 249.458 251.049 250.25 251.122H250.275C250.448 251.147 250.622 251.171 250.795 251.196C250.968 251.245 251.142 251.294 251.29 251.343C252.132 251.662 252.85 252.3 253.419 253.11L253.444 253.134C253.741 253.576 253.963 254.042 254.112 254.533C254.261 255.048 254.335 255.563 254.335 256.128C254.36 259.023 252.478 262.262 249.755 264.151C247.75 265.574 245.275 266.556 242.676 267.292C241.785 267.537 240.869 267.758 239.953 267.954C240.646 267.611 241.265 267.218 241.785 266.703C244.607 264.053 242.602 261.231 239.26 260.716C240.423 270.163 221.685 268.936 215.942 269.181V269.917C221.66 270.163 240.423 268.911 239.26 278.358C242.602 277.867 244.607 275.07 241.785 272.42C241.265 271.929 240.621 271.488 239.953 271.193C240.869 271.34 241.785 271.586 242.676 271.831C245.275 272.543 247.75 273.573 249.755 274.947C252.454 276.861 254.335 280.075 254.335 282.995C254.335 283.535 254.261 284.05 254.112 284.566C253.963 285.056 253.741 285.523 253.444 285.964L253.419 286.013C252.874 286.798 252.132 287.436 251.29 287.755C251.142 287.804 250.968 287.878 250.795 287.927C250.622 287.952 250.448 287.976 250.275 288.001H250.25C249.458 288.05 248.691 287.878 248.047 287.535C247.627 287.314 247.255 286.97 247.008 286.627C246.76 286.283 246.612 285.891 246.562 285.473C246.537 284.983 246.636 284.492 246.933 283.977C247.156 283.56 247.528 283.241 247.998 283.093C247.899 283.314 247.849 283.216 247.849 283.854C247.849 284.492 248.641 285.621 249.632 285.621C250.622 285.621 251.414 284.835 251.414 283.854C251.414 283.167 251.142 282.701 250.721 282.333C249.211 281.18 246.735 281.793 245.844 283.388C245.424 284.148 245.275 284.885 245.325 285.596C245.374 286.234 245.622 286.872 245.993 287.387C246.364 287.878 246.859 288.32 247.429 288.639C248.27 289.105 249.31 289.326 250.325 289.252H250.349C250.572 289.252 250.82 289.203 251.043 289.178C251.265 289.105 251.488 289.031 251.711 288.958C252.8 288.541 253.741 287.731 254.434 286.725C254.805 286.16 255.077 285.572 255.251 284.934C255.424 284.32 255.523 283.707 255.523 283.02C255.548 279.732 253.444 276.1 250.424 273.966C248.27 272.445 245.671 271.414 242.948 270.653C242.379 270.482 241.785 270.334 241.191 270.212C248.518 270.212 257.825 269.77 263.939 274.628C271.415 270.015 289.584 270.187 297.975 269.966V269.132H298ZM199.976 266.654C198.392 266.654 197.105 267.93 197.105 269.5C197.105 271.07 198.392 272.346 199.976 272.346C201.56 272.346 202.847 271.07 202.847 269.5C202.847 267.93 201.56 266.654 199.976 266.654ZM160.024 266.654C161.608 266.654 162.895 267.93 162.895 269.5C162.895 271.07 161.608 272.346 160.024 272.346C158.44 272.346 157.153 271.07 157.153 269.5C157.153 267.93 158.44 266.654 160.024 266.654ZM180.074 266.384C181.807 266.384 183.218 267.783 183.218 269.5C183.218 271.218 181.807 272.616 180.074 272.616C178.342 272.616 176.931 271.218 176.931 269.5C176.931 267.783 178.342 266.384 180.074 266.384Z" fill="white"/>
</g>
<defs>
<clipPath id="clip0_13_19496">
<rect width="236" height="45" fill="white" transform="translate(62 247)"/>
</clipPath>
</defs>
</svg>
