<svg width="360" height="540" viewBox="0 0 360 540" fill="none" xmlns="http://www.w3.org/2000/svg">
<g clip-path="url(#clip0_20_2536)">
<path d="M329.919 0.5H30.8082C14.2704 0.5 0.86377 13.9066 0.86377 30.4445V509.556C0.86377 526.093 14.2704 539.5 30.8082 539.5H329.919C346.457 539.5 359.864 526.093 359.864 509.556V30.4445C359.864 13.9066 346.457 0.5 329.919 0.5Z" fill="white" stroke="#2A3244"/>
<path d="M20.3638 30V45V50H30.3638C33.1338 50 35.3638 52.23 35.3638 55.0001V70C35.3638 72.77 33.1338 75 30.3638 75C27.5938 75 25.3638 72.77 25.3638 70V65H20.3638V70C20.3638 75.54 24.8238 80 30.3638 80C35.9038 80 40.3638 75.54 40.3638 70V55.0001C40.3638 49.46 35.9038 45 30.3638 45H25.3638V35H30.3638H40.3638V30H30.3638H25.3638H20.3638Z" fill="#FF5555"/>
<path d="M340.364 510V495V490H330.364C327.594 490 325.364 487.77 325.364 485V470C325.364 467.23 327.594 465 330.364 465C333.134 465 335.364 467.23 335.364 470V475H340.364V470C340.364 464.46 335.904 460 330.364 460C324.824 460 320.364 464.46 320.364 470V485C320.364 490.54 324.824 495 330.364 495H335.364V505H330.364H320.364V510H330.364H335.364H340.364Z" fill="#FF5555"/>
<path d="M30.3638 90C30.3638 90 33.3638 97.5 36.8638 102.5C40.3638 107.5 45.3638 112.5 45.3638 112.5C45.3638 112.5 40.3638 117.5 36.8638 122.5C33.3638 127.5 30.3638 135 30.3638 135C30.3638 135 27.3638 127.5 23.8638 122.5C20.3638 117.5 15.3638 112.5 15.3638 112.5C15.3638 112.5 20.3638 107.5 23.8638 102.5C27.3638 97.5 30.3638 90 30.3638 90Z" fill="#FF5555"/>
<path d="M330.364 405C330.364 405 333.364 412.5 336.864 417.5C340.364 422.5 345.364 427.5 345.364 427.5C345.364 427.5 340.364 432.5 336.864 437.5C333.364 442.5 330.364 450 330.364 450C330.364 450 327.364 442.5 323.864 437.5C320.364 432.5 315.364 427.5 315.364 427.5C315.364 427.5 320.364 422.5 323.864 417.5C327.364 412.5 330.364 405 330.364 405Z" fill="#FF5555"/>
<path d="M90.3638 45C90.3638 45 96.3638 60 103.364 70C110.364 80 120.364 90 120.364 90C120.364 90 110.364 100 103.364 110C96.3638 120 90.3638 135 90.3638 135C90.3638 135 84.3638 120 77.3638 110C70.3638 100 60.3638 90 60.3638 90C60.3638 90 70.3638 80 77.3638 70C84.3638 60 90.3638 45 90.3638 45Z" fill="#FF5555"/>
<path d="M270.364 45C270.364 45 276.364 60 283.364 70C290.364 80 300.364 90 300.364 90C300.364 90 290.364 100 283.364 110C276.364 120 270.364 135 270.364 135C270.364 135 264.364 120 257.364 110C250.364 100 240.364 90 240.364 90C240.364 90 250.364 80 257.364 70C264.364 60 270.364 45 270.364 45Z" fill="#FF5555"/>
<path d="M180.364 225C180.364 225 186.364 240 193.364 250C200.364 260 210.364 270 210.364 270C210.364 270 200.364 280 193.364 290C186.364 300 180.364 315 180.364 315C180.364 315 174.364 300 167.364 290C160.364 280 150.364 270 150.364 270C150.364 270 160.364 260 167.364 250C174.364 240 180.364 225 180.364 225Z" fill="#FF5555"/>
<path d="M90.3638 405C90.3638 405 96.3638 420 103.364 430C110.364 440 120.364 450 120.364 450C120.364 450 110.364 460 103.364 470C96.3638 480 90.3638 495 90.3638 495C90.3638 495 84.3638 480 77.3638 470C70.3638 460 60.3638 450 60.3638 450C60.3638 450 70.3638 440 77.3638 430C84.3638 420 90.3638 405 90.3638 405Z" fill="#FF5555"/>
<path d="M270.364 405C270.364 405 276.364 420 283.364 430C290.364 440 300.364 450 300.364 450C300.364 450 290.364 460 283.364 470C276.364 480 270.364 495 270.364 495C270.364 495 264.364 480 257.364 470C250.364 460 240.364 450 240.364 450C240.364 450 250.364 440 257.364 430C264.364 420 270.364 405 270.364 405Z" fill="#FF5555"/>
</g>
<defs>
<clipPath id="clip0_20_2536">
<rect width="360" height="540" fill="white"/>
</clipPath>
</defs>
</svg>
